<?xml version="1.0" standalone="no"?>
<!DOCTYPE svg PUBLIC "-//W3C//DTD SVG 20010904//EN"
 "http://www.w3.org/TR/2001/REC-SVG-20010904/DTD/svg10.dtd">
<svg version="1.0" xmlns="http://www.w3.org/2000/svg"
 width="600.000000pt" height="600.000000pt" viewBox="0 0 600.000000 600.000000"
 preserveAspectRatio="xMidYMid meet">
<metadata>
Created by potrace 1.14, written by Peter Selinger 2001-2017
</metadata>
<g transform="translate(0.000000,600.000000) scale(0.100000,-0.100000)"
fill="#000000" stroke="none">
<path d="M887 5704 c-3 -3 -95 -7 -204 -9 -214 -3 -240 -8 -302 -60 -55 -47
-72 -102 -75 -237 -1 -65 -5 -121 -9 -124 -3 -3 -1 -17 4 -31 6 -18 6 -30 -2
-39 -7 -9 -8 -14 -1 -14 11 0 10 -39 -2 -58 -3 -6 -2 -13 4 -17 5 -3 10 -11
10 -16 0 -6 -5 -7 -11 -3 -8 4 -8 1 -2 -12 7 -16 10 -339 3 -369 -1 -5 -1 -12
0 -15 5 -13 5 -88 0 -85 -4 2 -5 -6 -4 -18 1 -12 3 -22 4 -22 1 0 3 -19 5 -42
1 -23 -1 -40 -5 -38 -9 5 -6 -27 4 -43 4 -7 2 -19 -4 -27 -7 -8 -8 -15 -3 -15
5 0 9 -9 10 -20 1 -11 -2 -18 -6 -16 -4 3 -6 -5 -5 -17 1 -12 3 -22 4 -22 1 0
3 -19 5 -42 1 -23 -1 -40 -5 -38 -4 2 -5 -6 -4 -18 1 -12 3 -22 4 -22 1 0 3
-19 4 -42 1 -24 -2 -39 -8 -36 -5 4 -6 1 -1 -7 13 -20 13 -372 0 -389 -7 -10
-7 -13 0 -9 7 4 11 -13 12 -48 0 -34 -4 -54 -11 -54 -6 0 -4 -5 4 -10 13 -9
13 -11 0 -20 -8 -5 -10 -10 -5 -10 15 0 16 -72 1 -89 -7 -10 -7 -13 0 -8 7 4
11 -11 12 -48 0 -35 -4 -55 -11 -55 -7 0 -5 -5 3 -10 13 -9 13 -11 0 -20 -8
-5 -10 -10 -5 -10 15 0 16 -72 1 -89 -6 -8 -6 -12 -1 -9 7 5 11 -39 12 -133 1
-101 -2 -137 -11 -132 -8 5 -8 3 0 -8 15 -20 16 -162 1 -152 -7 4 -6 0 2 -10
11 -14 11 -20 0 -34 -8 -9 -9 -14 -4 -11 7 4 11 -13 12 -48 0 -34 -4 -54 -11
-54 -6 0 -4 -5 4 -10 13 -9 13 -11 0 -20 -8 -5 -10 -10 -5 -10 15 0 16 -72 1
-89 -7 -10 -7 -13 0 -8 7 4 11 -11 12 -48 0 -35 -4 -55 -11 -55 -7 0 -5 -5 3
-10 13 -9 13 -11 0 -20 -8 -5 -10 -10 -5 -10 15 0 16 -72 1 -89 -6 -8 -6 -12
-1 -9 7 5 11 -39 12 -133 1 -101 -2 -137 -11 -132 -8 5 -8 3 0 -8 15 -20 16
-162 1 -152 -7 4 -6 0 2 -10 11 -14 11 -20 0 -34 -8 -9 -9 -14 -4 -11 7 4 11
-13 12 -48 0 -34 -4 -54 -11 -54 -6 0 -4 -5 4 -10 13 -9 13 -11 0 -20 -8 -5
-10 -10 -5 -10 15 0 16 -72 1 -89 -7 -10 -7 -13 0 -8 7 4 11 -11 12 -48 0 -35
-4 -55 -11 -55 -7 0 -5 -5 3 -10 13 -9 13 -11 0 -20 -8 -5 -10 -10 -5 -10 15
0 16 -72 1 -89 -6 -8 -6 -12 -1 -9 7 5 11 -39 12 -133 1 -101 -2 -137 -11
-132 -8 5 -8 3 0 -8 8 -9 11 -53 10 -121 0 -58 1 -105 4 -103 3 2 13 -23 24
-56 10 -32 22 -59 27 -59 5 0 9 -7 9 -15 0 -8 5 -15 12 -15 6 0 8 -3 5 -6 -6
-7 56 -58 99 -82 13 -7 24 -18 24 -23 0 -6 4 -7 10 -4 5 3 10 -2 10 -13 0 -10
3 -21 6 -25 8 -8 34 3 34 15 0 6 -6 5 -15 -2 -12 -10 -15 -9 -15 5 0 13 5 16
22 10 13 -4 33 -7 46 -8 12 -1 22 -7 22 -15 0 -12 -3 -12 -17 -1 -11 10 -14
10 -9 2 4 -7 3 -13 -3 -13 -5 0 -11 3 -14 8 -2 4 -2 1 0 -7 2 -7 -2 -20 -8
-27 -19 -23 2 -15 23 9 14 15 18 17 14 5 -6 -21 22 -32 40 -17 12 9 14 7 12
-12 -3 -25 7 -28 47 -14 18 6 18 4 -3 -14 -13 -11 -30 -17 -37 -14 -8 3 -15 3
-15 0 0 -16 33 -13 56 6 22 17 26 18 22 5 -4 -9 0 -22 8 -29 12 -9 12 -15 2
-27 -10 -12 -10 -14 -1 -8 19 11 37 47 20 41 -8 -4 -13 3 -14 16 -1 16 1 18
11 10 7 -6 16 -8 19 -4 6 6 11 -11 8 -29 0 -5 4 -8 9 -8 6 0 10 5 10 11 0 5 5
7 11 3 6 -3 3 5 -6 20 -10 14 -14 26 -10 26 4 0 2 6 -4 13 -6 8 -7 17 -3 22 4
4 -8 0 -25 -9 -18 -9 -33 -14 -33 -11 0 3 -9 1 -20 -5 -16 -8 -20 -8 -18 2 2
7 -3 12 -10 10 -8 -1 -11 2 -6 9 4 7 3 9 -4 5 -6 -3 -13 -2 -17 4 -4 6 -11 8
-16 4 -5 -3 -7 -10 -4 -15 4 -5 1 -9 -4 -9 -6 0 -11 7 -11 15 0 8 5 15 11 15
5 0 8 4 4 9 -3 6 4 8 15 6 11 -2 20 1 20 8 0 6 7 1 16 -11 8 -12 20 -22 26
-22 7 0 7 4 -1 13 -15 18 -3 29 20 17 9 -6 26 -7 36 -4 15 5 15 4 3 -5 -8 -6
-23 -8 -32 -5 -11 3 -16 0 -14 -10 3 -19 16 -34 16 -18 0 7 3 12 8 11 15 -2
52 14 52 22 0 5 5 9 10 9 6 0 3 -11 -5 -24 -10 -15 -12 -27 -6 -30 5 -4 13 3
16 14 6 18 9 19 22 8 13 -10 17 -10 20 0 3 6 9 12 14 12 6 0 8 -4 5 -9 -9 -14
38 -41 54 -31 7 4 20 6 28 2 11 -4 13 -1 7 7 -4 8 4 6 19 -4 23 -16 26 -16 32
-1 8 22 21 20 29 -4 4 -11 11 -17 17 -14 6 4 6 10 -1 17 -6 6 -11 16 -11 22 0
5 5 2 11 -8 10 -18 12 -18 30 -1 12 11 16 21 10 28 -7 8 -4 12 9 12 18 0 18
-2 5 -23 -19 -28 -19 -33 1 -33 8 0 12 5 9 11 -4 6 2 5 13 -2 12 -7 19 -15 17
-17 -2 -3 1 -14 7 -25 8 -17 6 -24 -13 -40 l-24 -19 29 17 c26 16 28 16 23 1
-5 -14 -3 -15 13 -6 27 14 38 12 17 -4 -16 -12 -15 -14 8 -14 14 0 28 5 32 11
3 5 14 0 25 -14 15 -19 17 -20 11 -4 -5 11 -8 30 -7 42 0 13 -3 23 -8 23 -5 0
-7 -10 -3 -22 6 -21 5 -22 -6 -4 -10 16 -9 22 7 33 10 7 13 13 7 13 -7 0 -14
-4 -17 -9 -3 -4 -17 -7 -31 -6 -15 2 -29 -3 -35 -13 -5 -10 -10 -12 -10 -7 -1
6 -3 19 -5 29 -2 10 4 26 13 35 15 15 15 15 9 -1 -3 -10 -2 -20 2 -23 14 -8
22 26 10 41 -6 8 -7 14 -2 14 5 0 15 -9 23 -19 7 -11 17 -18 22 -15 4 3 5 -2
2 -11 -5 -11 -2 -14 10 -9 9 3 13 11 9 17 -4 6 -1 7 6 3 14 -9 53 22 46 35 -3
4 0 11 6 15 7 4 9 3 6 -2 -3 -6 8 -16 24 -23 17 -7 28 -16 25 -19 -3 -2 -12 1
-20 8 -9 6 -21 10 -28 8 -8 -3 0 -11 17 -20 17 -8 36 -13 44 -10 8 3 12 -1 9
-9 -3 -8 -10 -15 -16 -15 -7 -1 -14 -3 -17 -4 -29 -14 -57 5 -50 34 5 17 1 15
-19 -9 -14 -16 -22 -31 -17 -33 5 -2 8 -17 6 -35 -2 -18 -1 -24 1 -15 3 10 9
18 14 18 5 0 7 -7 4 -15 -4 -8 -1 -15 6 -15 6 0 9 4 6 8 -2 4 5 14 16 21 18
11 20 11 15 -4 -4 -9 -3 -14 3 -10 6 3 10 1 10 -4 0 -6 5 -11 12 -11 9 0 9 3
0 12 -21 21 -13 32 10 12 12 -10 18 -14 15 -7 -5 8 0 11 13 10 11 -1 20 -5 20
-10 0 -5 8 -3 17 4 15 12 16 12 10 -4 -4 -10 -7 -21 -7 -23 0 -3 -5 -2 -12 2
-7 4 -8 3 -4 -4 4 -7 9 -12 11 -12 10 0 32 56 27 70 -4 12 -2 13 9 3 11 -9 18
-9 29 0 21 16 19 41 -2 45 -10 2 -18 -2 -18 -8 0 -6 4 -9 8 -6 5 3 9 -1 9 -8
0 -7 -6 -13 -13 -13 -7 0 -10 5 -7 10 4 6 1 7 -7 2 -8 -5 -11 -4 -7 2 3 5 0
10 -8 10 -11 0 -12 -4 -4 -14 8 -9 8 -13 0 -13 -6 0 -10 -5 -8 -11 1 -6 -4
-14 -11 -16 -11 -4 -12 -1 -3 15 6 11 8 28 4 38 -5 13 -3 16 8 12 8 -3 26 0
39 7 21 11 26 10 42 -9 9 -11 17 -16 18 -9 0 6 -4 15 -10 18 -5 3 -10 11 -10
18 0 6 7 2 15 -9 15 -19 15 -19 31 1 13 15 15 16 11 3 -3 -9 1 -22 10 -30 14
-11 15 -10 8 11 l-7 24 23 -22 c25 -23 48 -29 32 -8 -6 6 -10 20 -10 29 0 14
3 15 14 6 10 -8 19 -6 36 8 l22 19 -19 -23 c-11 -12 -26 -20 -34 -17 -8 3 -12
0 -10 -7 6 -18 36 -18 43 0 5 14 9 13 20 -8 7 -14 17 -25 21 -25 8 0 28 46 25
58 0 4 11 0 25 -10 15 -9 34 -18 43 -20 18 -2 53 26 46 38 -3 4 0 11 6 15 7 4
10 3 7 -2 -4 -5 9 -20 28 -34 18 -14 34 -29 34 -34 0 -5 -7 -2 -17 5 -14 12
-16 12 -11 -1 2 -8 12 -15 21 -15 8 0 19 -4 24 -9 5 -5 2 -6 -6 -1 -11 6 -11
4 -4 -10 6 -10 8 -26 6 -36 -3 -11 0 -19 6 -19 5 0 8 6 5 13 -3 8 4 13 16 14
11 1 18 -2 16 -6 -3 -4 0 -13 6 -21 8 -13 9 -12 5 2 -3 9 2 22 10 30 15 11 16
11 9 -6 -7 -19 -6 -19 14 -1 21 19 29 8 8 -13 -9 -9 -9 -12 0 -12 7 0 12 5 12
11 0 5 4 7 10 4 6 -4 7 1 3 12 -6 16 -5 16 10 5 16 -14 13 -43 -5 -39 -6 1
-13 -5 -15 -13 -3 -10 -2 -11 4 -4 4 6 16 10 25 8 10 -1 21 3 25 8 3 7 1 8 -5
4 -7 -4 -10 2 -9 14 1 13 6 19 15 15 7 -3 16 -5 18 -5 3 0 2 -4 -1 -10 -3 -5
-1 -10 5 -10 7 0 9 9 5 23 -6 20 -4 20 19 -6 14 -15 26 -24 26 -19 0 5 -11 21
-24 35 -21 23 -25 24 -31 9 -6 -16 -7 -16 -16 1 -8 13 -14 15 -23 7 -10 -7
-17 -6 -26 5 -13 15 -35 11 -25 -6 4 -5 1 -9 -5 -9 -7 0 -9 7 -6 17 4 10 4 14
0 10 -4 -4 -13 -2 -21 4 -7 6 -13 7 -13 2 0 -5 -7 -10 -15 -10 -8 0 -11 5 -8
10 3 6 1 7 -5 3 -18 -11 -24 13 -7 31 15 15 16 15 13 -2 -2 -10 2 -20 9 -22
12 -4 11 26 -1 45 -2 4 0 14 5 22 9 13 10 13 8 0 -2 -25 1 -40 9 -39 20 3 31
-2 26 -14 -3 -8 2 -14 11 -14 19 0 19 11 2 29 -12 11 -12 16 1 28 14 13 15 12
10 -1 -7 -19 16 -66 26 -51 3 6 2 13 -4 17 -5 3 -10 11 -10 18 0 6 6 3 13 -7
12 -16 14 -16 26 -2 8 9 20 16 28 16 8 0 11 5 8 10 -4 6 -10 8 -15 5 -5 -3
-11 -1 -14 4 -9 13 22 7 36 -7 10 -10 8 -14 -10 -18 -25 -7 -27 -15 -10 -32 9
-9 9 -12 0 -12 -7 0 -12 5 -12 10 0 6 -4 10 -8 10 -14 0 -10 -29 5 -34 25 -10
44 4 33 24 -8 15 -6 20 10 25 11 3 20 11 20 16 0 5 5 9 10 9 6 0 5 -8 -2 -19
-7 -11 -16 -17 -20 -15 -4 3 -8 -3 -8 -12 0 -10 3 -14 7 -11 3 4 13 1 20 -5
12 -9 14 -9 13 3 -4 28 0 39 15 39 8 0 15 -5 15 -11 0 -5 -4 -8 -9 -4 -5 3
-12 1 -15 -4 -3 -5 1 -11 9 -15 16 -6 35 21 28 40 -2 6 3 16 11 23 24 20 29
-6 7 -38 -11 -15 -18 -31 -14 -35 4 -3 14 5 23 20 13 19 19 22 23 11 6 -16 43
-15 75 2 17 9 22 8 27 -9 4 -11 11 -17 17 -14 6 4 6 10 -1 17 -6 6 -11 15 -11
21 0 5 6 2 13 -7 13 -18 30 -18 64 1 34 19 41 14 11 -6 -22 -14 -25 -21 -16
-30 16 -16 29 -15 22 2 -6 15 29 40 40 29 3 -3 6 3 6 15 0 27 15 36 30 17 7
-8 17 -12 23 -8 6 4 7 1 2 -7 -6 -10 -4 -12 8 -7 10 4 17 1 17 -6 1 -7 6 -5
14 6 7 9 17 17 21 17 5 0 -2 -11 -15 -25 -27 -29 -23 -44 5 -17 18 17 20 17
39 -2 18 -18 20 -18 32 -2 7 10 10 24 8 30 -3 7 2 18 10 25 24 20 29 -6 7 -38
-11 -15 -18 -31 -14 -35 4 -3 14 5 23 20 13 19 19 22 23 11 3 -9 15 -13 34
-10 15 2 41 5 57 7 36 3 54 31 29 45 -10 6 -13 11 -7 11 24 0 34 -25 19 -48
-9 -12 -11 -23 -6 -26 5 -4 12 3 16 14 8 25 22 26 29 2 7 -21 36 -26 36 -7 0
7 7 18 15 25 12 10 13 16 4 27 -10 11 -9 12 5 7 18 -7 21 -20 6 -29 -15 -9
-12 -25 4 -25 8 0 14 -9 13 -20 -1 -10 -3 -17 -6 -15 -2 3 -10 0 -18 -6 -7 -6
-13 -8 -13 -3 0 5 -4 3 -9 -5 -6 -9 -11 -10 -15 -2 -4 6 -2 11 4 11 6 0 8 5 4
11 -4 8 -12 3 -21 -12 -8 -13 -12 -17 -10 -8 3 10 -2 15 -18 15 -13 0 -22 -4
-19 -8 3 -4 -2 -5 -10 -2 -10 4 -16 1 -16 -7 0 -11 -3 -11 -10 1 -6 9 -10 10
-10 3 0 -6 5 -15 10 -18 6 -3 10 -10 10 -16 0 -5 -8 -4 -19 2 -10 7 -18 21
-17 33 1 13 -4 20 -12 18 -9 -1 -11 2 -6 10 5 8 1 7 -11 -2 -11 -9 -16 -10
-11 -2 4 6 3 12 -3 12 -5 0 -13 -5 -16 -10 -4 -6 -11 -8 -16 -5 -5 4 -9 2 -9
-4 0 -5 -9 -8 -19 -6 -15 3 -18 -1 -14 -13 4 -13 2 -12 -11 3 -10 11 -14 14
-11 7 6 -11 3 -12 -14 -2 -12 6 -19 15 -16 20 3 5 1 11 -5 15 -9 5 -14 -6 -12
-26 1 -3 -5 -6 -13 -6 -8 0 -11 5 -8 11 3 6 3 8 -2 4 -4 -4 -17 -3 -28 3 -15
9 -18 8 -12 -2 6 -8 4 -10 -5 -4 -8 5 -11 4 -7 -1 3 -5 -3 -10 -13 -10 -10 0
-16 5 -12 11 3 5 -3 3 -13 -5 -17 -13 -18 -13 -10 0 7 12 6 13 -7 3 -8 -7 -18
-9 -23 -5 -4 4 -3 -2 2 -13 11 -21 7 -45 -6 -45 -5 0 -7 11 -6 25 3 24 -2 28
-38 28 -13 0 -15 3 -7 12 7 8 7 15 2 19 -6 3 -13 -1 -16 -9 -3 -8 -9 -15 -13
-14 -4 1 -10 0 -13 -1 -15 -7 -58 -4 -53 4 4 5 1 6 -7 1 -9 -6 -11 -4 -5 6 7
11 5 11 -10 -1 -11 -9 -16 -10 -11 -3 4 7 3 13 -3 13 -5 0 -13 -5 -16 -10 -4
-6 -11 -8 -16 -5 -5 4 -9 2 -9 -4 0 -5 -9 -8 -19 -6 -15 3 -18 -1 -14 -13 5
-13 2 -12 -13 3 -10 12 -14 14 -9 6 8 -12 7 -13 -5 -6 -19 12 -60 14 -60 4 0
-4 5 -11 10 -14 6 -3 10 -1 10 6 0 7 3 9 8 5 7 -7 8 -12 11 -38 0 -6 4 -8 8
-5 3 4 22 -3 42 -14 20 -11 28 -14 18 -6 -12 10 -15 17 -7 22 6 4 8 16 5 28
-6 21 -5 21 9 4 8 -11 12 -25 9 -33 -3 -8 2 -16 10 -20 9 -3 13 -12 11 -19 -3
-7 -1 -15 4 -19 5 -3 8 4 7 15 -1 11 -7 24 -15 29 -11 7 -11 10 1 22 19 18 52
20 45 3 -3 -10 0 -12 11 -8 10 4 14 2 10 -4 -3 -5 0 -10 8 -10 8 0 12 4 9 9
-3 4 0 8 5 8 6 0 11 -5 11 -11 0 -6 6 -9 13 -6 6 2 11 12 9 22 -4 23 17 9 28
-19 7 -18 9 -18 9 -3 1 11 -9 27 -21 38 -13 10 -18 18 -11 19 6 0 15 -5 18
-10 5 -8 12 -7 23 2 13 11 15 11 10 -4 -4 -9 0 -24 8 -35 13 -17 15 -17 28 0
12 15 15 15 26 2 7 -8 17 -15 23 -15 6 0 2 7 -9 16 -19 15 -19 16 1 9 11 -4
25 -7 30 -8 6 -1 13 -9 18 -17 4 -8 5 -2 2 15 l-5 30 30 -33 c16 -18 30 -29
30 -24 0 4 -5 13 -12 20 -6 6 -9 15 -5 19 4 3 13 -2 20 -11 10 -13 20 -16 36
-11 21 6 21 8 5 20 -10 7 -23 11 -29 8 -7 -2 -12 3 -12 12 0 18 1 19 36 0 16
-8 31 -11 35 -8 3 4 6 1 6 -5 0 -6 -9 -20 -20 -30 l-20 -19 22 -19 c21 -16 21
-16 7 0 -16 17 -16 19 3 38 13 13 17 26 12 41 -5 17 -3 19 6 11 18 -17 19 -48
2 -60 -12 -9 -12 -13 -2 -19 8 -5 11 -4 7 2 -4 6 0 14 9 17 8 3 13 9 11 13 -3
5 0 13 7 18 16 14 48 15 43 1 -3 -6 -11 -10 -18 -8 -8 2 -11 0 -7 -4 4 -4 1
-12 -8 -18 -13 -10 -13 -14 8 -31 21 -17 21 -18 6 -1 -16 18 -15 20 7 38 29
22 44 23 52 2 5 -14 8 -13 18 6 7 14 15 18 19 12 3 -6 2 -13 -4 -17 -5 -3 -10
-12 -10 -18 0 -7 5 -5 10 5 6 9 18 15 28 13 9 -2 21 -4 25 -4 5 -1 6 -5 3 -9
-3 -5 1 -9 9 -9 8 0 15 4 15 9 0 4 -5 8 -11 8 -5 0 -7 5 -4 10 4 7 -3 9 -20 6
-17 -3 -25 -1 -23 6 5 15 39 19 55 7 7 -6 17 -8 23 -4 5 3 10 -2 10 -11 0 -10
2 -15 5 -13 4 4 7 16 14 59 1 3 5 -1 10 -9 6 -9 11 -10 15 -2 4 6 3 11 -2 11
-5 0 -9 8 -9 18 0 22 29 45 38 30 4 -6 10 -1 14 11 3 11 11 21 16 21 5 0 2
-11 -6 -24 -10 -15 -12 -27 -6 -30 5 -4 12 3 16 14 8 25 22 26 30 1 3 -12 12
-18 20 -15 11 5 10 10 -5 26 -16 17 -18 48 -3 48 3 0 3 -6 0 -14 -3 -8 3 -22
14 -32 18 -16 20 -16 39 1 11 10 17 21 15 26 -3 4 0 11 6 15 7 4 9 3 6 -2 -3
-6 8 -16 24 -23 17 -7 28 -16 25 -19 -3 -2 -12 1 -20 8 -9 6 -21 10 -28 8 -8
-3 0 -11 17 -20 17 -8 36 -13 44 -10 8 3 12 -1 9 -9 -3 -8 -10 -15 -16 -15 -7
-1 -14 -3 -17 -4 -29 -14 -57 5 -50 34 5 17 1 15 -19 -9 -14 -16 -22 -31 -17
-33 5 -2 8 -17 6 -35 -2 -18 -1 -24 1 -14 3 9 9 17 14 17 5 0 7 -7 4 -15 -4
-8 -1 -15 6 -15 6 0 9 4 6 8 -2 4 5 14 16 21 18 11 20 11 15 -4 -4 -9 -3 -14
3 -10 6 3 10 1 10 -4 0 -6 5 -11 12 -11 9 0 9 3 0 12 -21 21 -13 32 10 12 12
-10 18 -14 15 -7 -5 8 0 11 13 10 11 -1 20 -5 20 -10 0 -5 8 -3 17 4 15 12 16
12 10 -4 -4 -10 -7 -21 -7 -23 0 -3 -5 -2 -12 2 -7 4 -8 3 -4 -4 4 -7 9 -12
11 -12 10 0 32 56 27 70 -4 12 -2 13 9 3 11 -9 18 -9 29 0 21 16 19 41 -2 45
-10 2 -18 -2 -18 -8 0 -6 4 -9 8 -6 5 3 9 -1 9 -8 0 -7 -6 -13 -13 -13 -7 0
-10 5 -7 10 4 6 1 7 -7 2 -8 -5 -11 -4 -7 2 3 5 0 10 -8 10 -11 0 -12 -4 -4
-14 8 -9 8 -13 0 -13 -6 0 -10 -5 -8 -11 1 -6 -4 -14 -11 -16 -11 -4 -12 -1
-3 15 6 11 8 28 4 38 -5 13 -3 16 8 12 8 -3 26 0 39 7 21 11 26 10 42 -9 9
-11 17 -16 18 -9 0 6 -5 15 -10 18 -5 3 -10 11 -10 18 0 6 7 2 15 -9 15 -19
15 -19 31 1 13 15 15 16 11 3 -3 -9 1 -22 10 -30 14 -11 15 -10 8 11 l-7 24
23 -22 c25 -23 48 -29 32 -8 -6 6 -10 20 -10 29 0 14 3 15 14 6 10 -8 19 -6
36 8 l22 19 -19 -23 c-11 -12 -26 -20 -34 -17 -8 3 -12 0 -10 -7 6 -18 36 -18
43 0 6 15 8 14 18 -5 7 -12 16 -23 21 -25 9 -3 31 40 27 55 0 4 11 0 25 -10
15 -9 34 -18 43 -20 18 -2 53 26 46 38 -3 4 0 11 6 15 7 4 10 3 7 -2 -4 -5 9
-20 28 -34 18 -14 34 -29 34 -34 0 -5 -7 -2 -17 5 -14 12 -16 12 -11 -1 2 -8
12 -15 21 -15 8 0 19 -4 24 -9 5 -5 2 -6 -6 -1 -11 6 -11 4 -4 -10 6 -10 8
-26 6 -36 -3 -11 0 -19 6 -19 5 0 8 6 5 13 -3 8 4 13 16 14 11 1 18 -2 16 -6
-3 -4 0 -13 6 -21 8 -13 9 -12 5 2 -3 9 2 22 10 30 15 11 16 11 9 -6 -7 -19
-6 -19 14 -1 21 19 29 8 8 -13 -9 -9 -9 -12 0 -12 7 0 12 5 12 11 0 5 4 7 10
4 6 -4 7 1 3 12 -6 16 -5 16 10 5 16 -14 13 -43 -5 -39 -6 1 -13 -5 -15 -13
-3 -10 -2 -11 4 -4 4 6 16 10 25 8 10 -1 21 3 25 8 3 7 1 8 -5 4 -7 -4 -10 2
-9 14 1 13 6 19 15 15 7 -3 16 -5 18 -5 3 0 2 -4 -1 -10 -3 -5 -1 -10 5 -10 7
0 9 9 5 23 -6 20 -4 20 19 -6 14 -15 26 -24 26 -19 0 5 -11 21 -24 35 -21 23
-25 24 -31 9 -6 -16 -7 -16 -16 1 -8 13 -14 15 -23 7 -10 -7 -17 -6 -26 5 -13
15 -35 11 -25 -6 4 -5 1 -9 -5 -9 -7 0 -9 7 -6 17 4 10 4 14 0 10 -4 -4 -13
-2 -21 4 -7 6 -13 7 -13 2 0 -5 -7 -10 -15 -10 -8 0 -11 5 -8 10 3 6 1 7 -5 3
-18 -11 -24 13 -7 31 15 15 16 15 13 -2 -2 -10 2 -20 9 -22 12 -4 11 26 -1 45
-2 4 0 14 5 22 9 13 10 13 8 0 -2 -25 1 -40 9 -39 20 3 31 -2 26 -14 -3 -8 2
-14 11 -14 19 0 19 11 2 29 -12 11 -12 16 1 28 14 13 15 12 10 -1 -7 -19 16
-66 26 -51 3 6 2 13 -4 17 -5 3 -10 11 -10 18 0 6 6 3 13 -7 12 -16 14 -16 26
-2 8 9 20 16 28 16 8 0 11 5 8 10 -4 6 -10 8 -15 5 -5 -3 -11 -1 -14 4 -9 13
22 7 36 -7 10 -10 8 -14 -10 -18 -25 -7 -27 -15 -10 -32 9 -9 9 -12 0 -12 -7
0 -12 5 -12 10 0 6 -4 10 -8 10 -14 0 -10 -29 5 -34 25 -10 44 4 33 24 -8 15
-6 20 10 25 11 3 20 11 20 16 0 5 5 9 10 9 6 0 5 -8 -2 -19 -7 -11 -16 -17
-20 -15 -4 3 -8 -3 -8 -12 0 -10 3 -14 7 -11 3 4 13 1 20 -5 12 -9 14 -9 13 3
-4 28 0 39 15 39 8 0 15 -5 15 -11 0 -5 -4 -8 -9 -4 -5 3 -12 1 -15 -4 -3 -5
1 -11 9 -15 16 -6 35 21 28 40 -2 6 3 16 11 23 24 20 29 -6 7 -38 -11 -15 -18
-31 -14 -35 4 -3 14 5 23 20 13 19 19 22 23 11 6 -16 43 -15 75 2 17 9 22 8
27 -9 4 -11 11 -17 17 -14 6 4 6 10 -1 17 -6 6 -11 15 -11 21 0 5 6 2 13 -7
13 -18 30 -18 64 1 34 19 41 14 11 -6 -22 -14 -25 -21 -16 -30 16 -16 29 -15
22 2 -7 17 28 38 50 30 9 -3 12 -12 8 -22 -5 -15 -4 -15 11 -3 22 17 22 31 0
32 -13 0 -12 3 6 10 15 6 28 6 36 -1 12 -10 25 -4 25 12 0 5 -5 6 -12 2 -7 -4
-8 -3 -4 5 10 15 29 3 22 -15 -7 -17 10 -28 18 -12 4 9 5 8 5 -2 -2 -30 1 -41
11 -35 5 3 7 13 4 23 -4 10 -3 13 3 6 11 -14 50 -11 66 6 10 10 6 11 -18 7
-28 -6 -28 -6 -7 5 17 9 25 8 35 -2 9 -10 9 -13 0 -17 -15 -6 1 -43 19 -43 7
0 7 4 0 13 -7 8 -6 19 3 37 8 14 14 21 15 17 0 -5 -5 -17 -10 -27 -6 -10 -6
-21 -1 -24 4 -3 14 7 20 21 11 23 10 29 -5 40 -10 7 -13 13 -7 13 13 0 34 -24
32 -36 -3 -18 1 -37 7 -31 4 3 15 2 24 -3 21 -11 37 15 21 34 -6 8 -6 17 1 26
8 12 9 12 4 -3 -4 -12 2 -21 18 -29 16 -7 22 -16 19 -27 -5 -13 -3 -13 15 2
11 11 25 16 31 13 5 -4 15 2 21 13 8 16 6 22 -7 30 -10 6 -13 11 -7 11 23 0
34 -25 20 -46 -7 -10 -12 -27 -10 -36 1 -10 -2 -18 -8 -18 -6 0 -4 -7 3 -17
12 -14 12 -16 -1 -11 -9 3 -15 16 -14 36 1 18 -2 32 -7 32 -13 0 -20 -18 -10
-25 6 -3 7 -13 4 -21 -5 -13 -7 -13 -14 -2 -7 10 -9 10 -9 -2 0 -13 -1 -13
-10 0 -12 19 -50 22 -43 4 3 -8 0 -14 -5 -14 -6 0 -9 9 -7 20 2 11 0 20 -6 20
-5 0 -9 -4 -9 -8 0 -5 -6 -9 -14 -9 -8 0 -12 6 -9 13 2 6 -1 15 -7 19 -11 7
-9 -23 4 -55 9 -21 -29 -24 -46 -3 -11 14 -10 15 10 9 23 -8 31 7 10 20 -7 5
-8 3 -3 -5 6 -10 3 -11 -12 -2 -11 6 -24 7 -28 3 -5 -4 -4 0 0 8 8 13 7 13
-10 0 -17 -13 -18 -13 -10 0 8 13 7 13 -8 1 -12 -9 -17 -10 -17 -2 0 7 -5 9
-13 4 -11 -7 -21 -9 -77 -15 -14 -2 -28 -7 -31 -12 -4 -4 -10 -3 -13 3 -4 6
-2 11 4 11 6 0 8 5 4 11 -4 8 -12 3 -21 -12 -8 -13 -12 -17 -10 -8 3 10 -2 15
-18 15 -18 0 -22 -4 -16 -15 9 -17 4 -41 -8 -41 -5 0 -7 11 -6 25 3 24 -2 28
-38 28 -13 0 -15 3 -7 12 7 8 7 15 2 19 -6 3 -13 -1 -16 -9 -3 -8 -9 -15 -13
-14 -4 1 -10 0 -13 -1 -15 -7 -58 -4 -53 4 4 5 1 6 -7 1 -9 -6 -11 -4 -5 6 7
11 5 11 -10 -1 -11 -9 -16 -10 -11 -2 4 6 3 12 -3 12 -5 0 -13 -5 -16 -10 -4
-6 -11 -8 -16 -5 -5 4 -9 2 -9 -4 0 -5 -9 -8 -19 -6 -15 3 -18 -1 -14 -13 5
-13 2 -12 -13 3 -10 12 -14 14 -9 6 8 -12 7 -13 -5 -6 -19 12 -60 14 -60 4 0
-4 5 -11 10 -14 6 -3 10 -1 10 6 0 7 3 9 8 5 7 -7 8 -12 11 -38 0 -6 4 -8 8
-5 3 4 22 -3 42 -14 20 -11 28 -14 18 -6 -12 10 -15 17 -7 22 6 4 8 16 5 28
-6 21 -5 21 9 4 8 -11 12 -25 9 -33 -3 -8 2 -16 10 -20 9 -3 13 -12 11 -19 -3
-7 -1 -15 4 -19 5 -3 8 4 7 15 -1 11 -7 24 -15 29 -11 7 -11 10 1 22 19 18 52
20 45 3 -3 -10 0 -12 11 -8 10 4 14 2 10 -4 -3 -5 0 -10 8 -10 8 0 12 4 9 9
-3 4 0 8 5 8 6 0 11 -5 11 -11 0 -6 6 -9 13 -6 6 2 11 12 9 22 -4 23 17 9 28
-19 7 -18 9 -18 9 -3 1 11 -9 27 -21 38 -13 10 -18 18 -11 19 6 0 15 -5 18
-10 5 -8 12 -7 23 2 13 11 15 11 10 -4 -4 -9 0 -24 8 -35 14 -17 14 -17 29 1
18 23 44 29 63 14 9 -8 16 -8 24 0 19 19 32 14 17 -5 -7 -10 -1 -7 14 6 15 14
27 20 27 14 0 -6 -7 -16 -15 -23 -8 -7 -15 -18 -15 -24 0 -6 6 -2 12 9 11 18
12 18 18 0 3 -10 14 -19 23 -21 10 -1 15 2 11 7 -3 5 -9 7 -14 4 -4 -3 -10 5
-13 16 -4 14 -2 19 8 16 7 -3 18 0 25 6 10 9 11 7 5 -10 -4 -15 -2 -23 5 -23
6 0 8 5 5 10 -3 6 3 10 15 10 12 0 18 -4 15 -10 -3 -5 -1 -10 5 -10 7 0 9 9 5
23 -6 22 -6 22 15 -2 16 -19 23 -22 29 -12 5 8 11 9 15 3 3 -5 17 -9 32 -9 17
0 22 2 13 7 -6 5 -17 6 -23 4 -6 -2 -12 7 -12 22 l-2 26 19 -21 c22 -23 35
-26 44 -11 8 13 48 6 53 -10 3 -7 0 -10 -7 -6 -7 5 -9 1 -5 -9 4 -10 2 -15 -6
-13 -7 2 -15 -4 -17 -12 -3 -10 -2 -11 4 -4 4 6 16 10 25 8 10 -1 21 3 25 8 3
7 1 8 -5 4 -14 -9 -15 3 -2 24 8 12 10 12 16 -3 10 -28 22 -19 18 14 -3 25 -1
29 10 20 7 -6 12 -23 10 -37 l-2 -26 27 26 c32 31 46 34 29 6 -9 -14 -10 -22
-1 -31 8 -8 13 -7 18 2 5 8 4 10 -3 5 -17 -10 -15 19 1 33 14 11 27 5 27 -11
0 -5 -4 -6 -10 -3 -5 3 -10 4 -10 1 0 -3 10 -10 21 -17 15 -8 19 -8 15 0 -4 6
-4 16 0 23 5 8 10 6 16 -8 7 -17 8 -17 4 3 -2 12 3 28 11 35 12 10 14 9 13 -3
-4 -28 0 -38 21 -50 13 -7 19 -7 15 -1 -4 6 2 16 11 22 15 9 15 11 2 6 -13 -3
-16 1 -15 18 0 14 6 22 14 19 6 -3 12 -1 12 5 0 11 -49 10 -67 -1 -6 -4 -15
-3 -18 3 -5 8 -12 7 -23 -2 -11 -9 -13 -9 -9 -1 5 8 1 11 -13 8 -12 -2 -18 0
-14 6 3 6 -3 5 -15 -3 -12 -7 -17 -14 -11 -16 6 -2 7 -8 4 -14 -11 -17 -23 14
-13 33 6 11 5 20 -1 24 -5 3 -10 12 -10 18 0 7 5 4 11 -6 9 -15 13 -16 27 -5
12 10 14 10 8 1 -4 -7 -3 -13 3 -13 5 0 12 6 15 13 3 6 3 1 -1 -13 -5 -22 -4
-23 10 -12 9 8 15 19 13 25 -1 7 -1 9 1 4 8 -12 22 3 17 17 -3 8 -1 17 5 21 7
4 8 0 4 -11 -5 -13 -3 -15 8 -9 12 7 12 6 1 -7 -13 -17 -6 -52 9 -42 5 3 7 10
3 15 -7 12 14 39 30 39 6 0 2 -7 -8 -15 -11 -8 -16 -18 -13 -22 4 -3 19 4 33
18 l26 24 -24 6 c-21 6 -21 7 -2 8 27 1 36 -9 23 -25 -9 -11 -4 -12 20 -9 17
2 31 -1 31 -6 0 -5 6 -8 13 -7 6 2 11 -5 9 -15 -3 -19 6 -21 28 -7 10 6 20 3
34 -12 19 -20 20 -20 33 -3 11 16 10 22 -2 42 -9 13 -11 23 -6 23 5 0 13 -4
16 -10 3 -5 16 -8 28 -6 12 1 26 -3 32 -9 7 -9 16 -10 30 -4 19 9 18 9 -2 5
-31 -6 -29 12 2 24 17 7 23 14 18 26 -6 15 -4 15 23 -1 27 -15 28 -15 7 0 -13
10 -23 22 -23 27 0 6 6 6 14 -1 20 -17 32 5 15 26 -11 13 -10 18 11 35 23 19
24 19 31 1 6 -14 8 -15 8 -2 1 9 -8 24 -19 34 -22 20 -28 44 -6 26 17 -14 29
9 19 37 -6 15 -5 15 10 3 9 -7 14 -18 10 -24 -4 -6 -1 -7 6 -2 17 10 -26 56
-46 48 -12 -5 -12 -7 -1 -14 7 -5 9 -9 3 -9 -20 0 -37 18 -31 31 4 8 0 5 -8
-5 -21 -25 -20 -33 2 -33 38 0 52 -3 52 -12 0 -6 -9 -9 -19 -8 -11 0 -17 5
-14 10 3 5 -4 3 -16 -5 -12 -7 -17 -14 -11 -16 6 -2 8 -8 5 -13 -4 -5 0 -6 7
-4 9 4 14 -2 15 -14 2 -18 -1 -19 -18 -8 -18 11 -24 26 -19 56 2 13 0 13 -16
0 -16 -13 -16 -12 1 14 16 24 16 30 4 39 -11 8 -10 9 4 4 27 -9 35 24 10 44
-21 16 -21 17 -1 29 17 10 18 15 6 28 -7 9 -8 14 -3 11 6 -3 15 0 22 7 9 10 8
17 -3 31 -15 18 -15 18 -9 -1 3 -11 3 -16 -1 -12 -4 4 -12 -1 -19 -10 -9 -13
-14 -13 -20 -3 -5 8 -4 11 2 7 6 -4 15 5 21 18 11 25 32 34 32 15 0 -5 8 -6
17 -3 14 5 9 11 -22 25 l-40 17 43 -3 c23 -2 42 0 42 5 0 5 7 6 15 2 16 -5 12
-17 -6 -19 -5 -1 -12 -2 -15 -3 -4 0 0 -9 7 -18 12 -14 12 -15 1 -9 -12 7 -12
4 -2 -14 10 -18 10 -21 -2 -14 -9 6 -9 3 2 -11 13 -17 13 -18 0 -11 -11 6 -10
4 2 -9 20 -21 37 -13 19 9 -10 11 -9 16 5 24 13 7 14 13 5 30 -7 12 -7 23 -2
27 5 3 13 -4 16 -16 6 -17 9 -19 16 -8 13 20 11 37 -2 19 -9 -12 -10 -11 -6 7
3 15 1 20 -8 17 -15 -6 -15 27 0 38 6 5 5 15 -3 29 -12 19 -11 20 7 14 10 -3
22 -1 26 4 4 7 -1 9 -12 5 -16 -5 -16 -4 1 10 11 9 15 16 10 16 -6 0 -15 -5
-22 -12 -9 -9 -15 -9 -24 1 -8 8 -8 11 -2 8 7 -4 18 1 25 10 12 14 12 16 0 9
-9 -6 -12 -5 -9 5 3 8 11 13 17 11 6 -1 11 2 11 8 0 13 -13 13 -27 -1 -9 -9
-12 -6 -11 12 1 13 6 30 11 37 5 6 6 12 1 12 -4 0 1 7 12 15 18 15 18 15 1 29
-11 8 -26 12 -35 8 -15 -5 -15 -3 -4 10 9 11 10 18 2 23 -5 3 -10 12 -10 18 1
7 9 2 19 -10 11 -13 27 -23 38 -22 15 0 15 2 -3 9 -28 11 -42 32 -19 28 10 -2
20 3 22 10 3 6 0 12 -6 12 -6 0 -11 5 -11 11 0 5 4 8 8 5 5 -3 9 1 9 9 0 8 -5
11 -10 8 -6 -4 -8 0 -4 10 4 11 2 14 -8 11 -17 -7 -15 26 3 45 12 12 15 12 22
1 5 -8 18 -14 29 -15 11 -1 18 2 15 7 -4 5 -12 7 -19 4 -7 -2 -16 2 -19 11 -4
8 -12 13 -20 10 -8 -3 -22 1 -33 9 -17 14 -17 15 4 9 12 -3 24 -1 28 5 5 8 12
5 22 -7 8 -10 5 -2 -6 18 -16 27 -18 38 -9 47 9 9 9 15 -1 25 -10 10 -11 9 -6
-4 4 -11 0 -15 -14 -14 -26 2 -40 15 -17 15 12 0 16 5 12 16 -4 12 -1 14 14 9
12 -4 20 -2 20 5 0 6 -4 8 -10 5 -6 -3 -10 -2 -10 4 0 13 15 22 24 14 4 -4 14
-8 22 -9 9 -1 13 0 10 3 -3 4 0 13 6 22 8 10 4 9 -9 -3 -21 -17 -23 -17 -29
-2 -6 15 -7 15 -19 0 -8 -12 -14 -14 -19 -6 -4 7 -2 12 3 12 6 0 11 7 11 16 0
10 6 14 14 11 10 -4 13 -1 9 9 -6 16 -23 19 -23 3 0 -5 -5 -7 -10 -4 -8 5 -8
11 -1 19 7 9 7 16 -1 24 -9 9 -9 12 0 12 6 0 16 -8 21 -17 6 -10 11 -13 11 -6
0 6 -5 15 -10 18 -17 10 8 35 28 28 14 -4 15 -3 2 5 -9 7 -18 7 -26 1 -8 -6
-14 -4 -18 7 -9 22 -8 23 13 17 10 -3 22 0 25 5 4 6 -3 8 -16 5 -19 -4 -20 -3
-8 7 12 9 10 10 -10 4 -22 -6 -23 -5 -11 9 7 9 17 14 22 11 5 -3 9 0 9 6 0 7
-7 9 -15 6 -20 -7 -16 24 5 41 13 12 13 15 -3 27 -11 8 -26 12 -35 8 -15 -5
-15 -3 -4 10 9 11 10 18 2 23 -5 3 -10 12 -10 18 1 7 9 2 19 -10 11 -13 27
-23 38 -22 15 0 15 2 -3 9 -28 11 -42 32 -19 28 10 -2 20 3 22 10 3 6 0 12 -6
12 -6 0 -11 5 -11 11 0 5 4 8 8 5 5 -3 9 1 9 9 0 8 -5 11 -10 8 -6 -4 -8 0 -4
10 4 11 2 14 -8 11 -17 -7 -15 26 3 45 12 12 15 12 22 1 5 -8 18 -14 29 -15
11 -1 18 2 15 7 -4 5 -12 7 -19 4 -7 -2 -16 2 -19 11 -4 8 -12 13 -20 10 -8
-3 -22 1 -33 9 -17 14 -17 15 4 9 12 -3 24 -1 28 5 5 8 12 5 22 -7 8 -10 5 -2
-6 18 -15 26 -17 39 -10 46 14 14 3 34 -15 27 -7 -3 -13 1 -13 8 0 7 -4 22 -8
33 -6 17 -4 17 14 -4 12 -13 24 -21 28 -18 3 4 -5 16 -18 27 -24 21 -24 21 -1
15 13 -4 22 -2 22 5 0 6 -4 8 -10 5 -5 -3 -10 3 -10 15 0 12 5 18 10 15 6 -3
10 -1 10 5 0 7 -8 9 -22 4 -19 -6 -21 -5 -11 8 10 11 10 17 0 28 -10 10 -9 12
6 6 10 -3 23 -6 28 -6 6 0 8 -4 4 -9 -3 -5 -1 -12 4 -15 5 -4 8 1 7 11 -2 9
-11 20 -21 23 -18 6 -18 7 0 18 11 6 15 12 10 12 -6 0 -16 -5 -23 -12 -9 -9
-15 -9 -24 1 -8 8 -8 11 -2 8 7 -4 18 1 25 11 13 15 12 16 -3 3 -20 -15 -25
-2 -6 17 8 8 8 15 0 24 -15 19 -9 45 14 63 18 15 18 15 1 29 -11 8 -26 12 -35
8 -15 -5 -15 -3 -4 10 9 11 10 18 2 23 -5 3 -10 12 -10 18 1 7 9 2 19 -10 11
-13 27 -23 38 -22 15 0 15 2 -3 9 -28 11 -42 32 -19 28 10 -2 20 3 22 10 3 6
0 12 -6 12 -6 0 -11 5 -11 11 0 5 4 8 8 5 5 -3 9 1 9 9 0 8 -5 11 -10 8 -6 -4
-8 0 -4 10 4 11 2 14 -8 11 -17 -7 -15 26 3 45 12 12 15 12 22 1 5 -8 18 -14
29 -15 11 -1 18 2 15 7 -4 5 -12 7 -19 4 -7 -2 -16 2 -19 11 -4 8 -12 13 -20
10 -8 -3 -22 1 -33 9 -17 14 -17 15 4 9 12 -3 24 -1 28 5 5 8 12 5 22 -7 8
-10 5 -2 -6 18 -16 27 -18 38 -9 47 9 9 9 15 -1 25 -10 10 -11 9 -6 -4 4 -11
0 -15 -14 -14 -26 2 -40 15 -17 15 12 0 16 5 12 16 -4 12 -1 14 14 9 12 -4 20
-2 20 5 0 6 -4 8 -10 5 -6 -3 -10 -2 -10 4 0 13 15 22 24 14 4 -4 14 -8 22 -9
9 -1 13 0 10 3 -3 4 0 13 6 22 8 10 4 9 -9 -3 -21 -17 -23 -17 -29 -2 -6 15
-7 15 -19 0 -8 -12 -14 -14 -19 -6 -4 7 -2 12 3 12 6 0 11 7 11 16 0 10 6 14
14 11 10 -4 13 -1 9 9 -6 16 -23 19 -23 3 0 -5 -5 -7 -10 -4 -8 5 -8 11 -1 19
7 9 7 16 -1 24 -9 9 -9 12 0 12 6 0 16 -8 21 -17 6 -10 11 -13 11 -6 0 6 -5
15 -10 18 -17 10 8 35 28 28 14 -4 15 -3 2 5 -9 7 -18 7 -26 1 -8 -6 -14 -4
-18 7 -9 22 -8 23 13 17 10 -3 22 0 25 5 4 6 -3 8 -16 5 -19 -4 -20 -3 -8 7
12 9 10 10 -10 4 -22 -6 -23 -5 -11 9 7 9 17 14 22 11 5 -3 9 0 9 6 0 7 -7 9
-15 6 -20 -7 -16 24 5 42 13 11 13 14 -3 26 -11 8 -26 12 -35 8 -15 -5 -15 -3
-4 10 9 11 10 18 2 23 -5 3 -10 12 -10 18 1 7 9 2 19 -10 11 -13 27 -23 38
-22 15 0 15 2 -3 9 -28 11 -42 32 -19 28 10 -2 20 3 22 10 3 6 0 12 -6 12 -6
0 -11 5 -11 11 0 5 4 8 8 5 5 -3 9 1 9 9 0 8 -5 11 -10 8 -6 -4 -8 0 -4 10 4
11 2 14 -8 11 -17 -7 -15 26 3 45 12 12 15 12 22 1 5 -8 18 -14 29 -15 11 -1
18 2 15 7 -4 5 -12 7 -19 4 -7 -2 -16 2 -19 11 -4 8 -12 13 -20 10 -8 -3 -22
1 -33 9 -17 14 -17 15 4 9 12 -3 24 -1 28 5 5 8 12 5 22 -7 8 -10 5 -2 -6 18
-15 26 -17 39 -10 46 14 14 3 34 -15 27 -7 -3 -13 1 -13 8 0 7 -4 22 -8 33 -6
17 -4 17 14 -4 12 -13 24 -21 28 -18 3 4 -5 16 -18 27 -24 21 -24 21 -1 15 13
-4 22 -2 22 5 0 6 -4 8 -10 5 -5 -3 -10 3 -10 15 0 12 5 18 10 15 6 -3 10 -1
10 5 0 7 -8 9 -22 4 -19 -6 -21 -5 -11 8 10 11 10 17 0 28 -10 10 -9 12 6 6
10 -3 23 -6 28 -6 6 0 8 -4 4 -9 -3 -5 -1 -12 4 -15 5 -4 8 1 7 11 -2 9 -11
20 -21 23 -18 6 -18 7 0 18 11 6 15 12 10 12 -6 0 -16 -5 -23 -12 -9 -9 -15
-9 -24 1 -8 8 -8 11 -2 8 7 -4 18 1 25 11 13 15 12 16 -3 3 -20 -15 -25 -2 -6
17 8 8 8 15 -2 27 -7 8 -10 18 -7 22 4 3 2 12 -4 20 -6 7 -7 13 -2 13 14 0 32
-21 29 -34 -2 -6 -1 -8 1 -3 3 4 9 7 14 7 6 0 8 -4 4 -9 -3 -5 -1 -12 4 -15
20 -13 4 25 -17 40 -12 8 -22 20 -22 27 0 8 3 8 12 -1 7 -7 16 -12 21 -12 4 0
-5 12 -20 26 -26 23 -26 25 -5 19 13 -4 22 -2 22 4 0 6 -3 10 -7 10 -21 -3
-34 2 -28 11 4 6 11 8 16 5 5 -3 6 1 3 10 -5 11 -2 14 12 9 16 -5 16 -4 4 5
-11 8 -18 7 -27 -5 -7 -9 -13 -11 -17 -5 -4 6 5 18 19 27 14 9 25 21 25 28 0
7 -3 7 -8 -2 -8 -12 -52 -26 -52 -16 0 3 7 18 15 33 8 16 11 32 7 36 -4 5 1 5
10 2 23 -8 31 8 16 32 -14 23 -46 23 -59 -1 -9 -17 -5 -18 40 -6 7 1 15 -2 18
-8 2 -6 -8 -10 -25 -9 -17 1 -29 -3 -29 -11 0 -7 7 -10 16 -7 13 4 13 3 2 -5
-20 -14 -74 18 -59 35 6 7 14 10 19 7 5 -3 9 0 9 5 0 12 -23 15 -34 4 -3 -4
-17 -8 -29 -10 -17 -2 -19 -1 -7 6 8 5 18 7 22 5 5 -3 11 1 14 10 3 9 12 12
22 8 15 -5 15 -4 3 11 -17 22 -31 22 -31 0 0 -15 -2 -16 -9 -3 -7 10 -4 18 8
27 10 7 18 23 17 35 -1 13 2 31 6 41 7 14 2 21 -24 33 -26 12 -27 14 -8 10 25
-5 65 16 53 27 -3 4 -12 2 -20 -5 -11 -8 -17 -8 -26 2 -7 7 -7 10 -1 7 6 -4
19 0 29 7 17 12 17 14 -3 34 -11 11 -17 24 -14 28 4 4 0 5 -9 2 -9 -4 -22 -2
-30 3 -9 6 -4 8 18 5 19 -2 37 2 44 10 9 11 5 13 -19 9 -26 -3 -30 0 -27 17 3
11 7 23 11 27 3 3 4 -3 2 -13 -1 -10 2 -21 8 -23 14 -5 14 28 0 46 -8 11 -8
13 2 7 6 -4 12 -3 12 2 0 14 63 9 68 -6 2 -6 13 -12 25 -11 21 0 21 1 -3 10
l-24 10 29 19 c17 11 25 20 18 20 -6 0 -15 -4 -18 -10 -3 -5 -11 -10 -16 -10
-6 0 -7 5 -4 10 3 6 1 10 -5 10 -6 0 -9 4 -5 10 3 5 12 7 20 3 8 -3 15 0 15 7
0 6 -4 9 -9 5 -6 -3 -9 4 -8 15 1 11 7 20 15 20 7 0 10 -5 6 -12 -4 -6 -3 -8
4 -5 5 4 9 15 8 25 -2 9 2 21 8 25 7 6 6 7 -4 4 -8 -2 -14 -10 -13 -16 2 -6
-1 -11 -6 -11 -5 0 -18 -3 -28 -6 -11 -4 -6 6 15 25 18 17 29 31 24 31 -4 0
-13 -5 -20 -12 -6 -6 -15 -9 -19 -5 -3 4 2 13 12 21 11 8 16 20 12 29 -8 20
15 40 31 27 9 -7 9 -7 2 2 -17 21 -97 31 -97 12 0 -7 7 -10 16 -7 13 4 13 3 2
-5 -20 -14 -74 18 -59 35 6 7 14 10 19 7 5 -3 9 0 9 5 0 12 -23 15 -34 4 -3
-4 -17 -8 -29 -10 -17 -2 -19 -1 -7 6 8 5 18 7 22 5 5 -3 11 1 14 10 3 9 12
12 22 8 15 -5 15 -4 3 11 -17 22 -31 22 -31 0 0 -15 -2 -15 -9 -4 -7 10 -2 20
15 34 23 18 24 21 10 42 -13 19 -13 24 -2 28 8 3 22 4 32 2 11 -2 23 -4 28 -4
4 -1 -2 -10 -15 -21 -20 -17 -22 -21 -9 -29 9 -7 18 -7 24 -1 16 16 30 11 16
-4 -7 -9 -23 -13 -41 -11 -16 2 -29 0 -29 -5 0 -14 18 -21 25 -11 3 6 12 8 21
4 12 -5 12 -7 -3 -19 -16 -12 -16 -13 5 -7 14 3 21 11 18 19 -3 8 -2 14 2 14
4 0 13 10 20 21 10 16 11 24 2 33 -8 8 -10 7 -5 -4 4 -11 -2 -15 -24 -15 -16
-1 -27 3 -25 7 3 4 12 8 21 8 10 0 13 6 9 16 -4 12 -1 14 14 9 12 -4 20 -2 20
5 0 6 -4 8 -10 5 -6 -3 -10 -2 -10 4 0 5 5 13 10 16 6 3 10 11 10 18 0 6 -6 3
-13 -8 -10 -12 -16 -14 -21 -7 -4 7 -2 12 3 12 6 0 11 6 11 14 0 8 6 16 13 19
7 2 8 8 3 13 -5 5 -11 4 -13 -4 -3 -6 -9 -10 -13 -7 -13 8 0 36 14 28 6 -3 2
4 -9 17 l-20 23 20 -6 c11 -4 27 -2 35 4 11 8 9 9 -10 4 -20 -6 -23 -5 -12 6
6 7 12 18 12 23 0 6 -5 3 -11 -6 -5 -10 -14 -18 -20 -18 -5 0 -2 11 7 25 9 14
12 25 8 26 -5 0 0 5 11 10 16 8 15 8 -8 4 -25 -5 -26 -4 -15 14 7 11 21 25 33
30 18 10 18 11 -5 5 -20 -5 -23 -4 -12 7 6 7 12 17 12 23 0 5 -6 2 -13 -8 -10
-14 -18 -16 -31 -9 -21 12 -23 23 -4 34 21 14 32 10 18 -6 -7 -9 -8 -15 -2
-15 17 0 22 29 5 38 -13 8 -13 13 -3 32 10 18 9 24 -1 31 -7 4 -16 6 -20 3 -4
-2 -10 0 -14 6 -6 9 7 14 28 11 4 0 7 3 7 8 0 16 -34 8 -52 -11 -10 -10 -13
-18 -7 -18 6 0 8 -8 5 -17 -5 -16 -4 -16 6 -3 13 16 32 20 43 9 6 -6 -43 -24
-57 -21 -5 1 -8 -4 -8 -11 0 -18 28 -18 34 0 3 7 11 13 17 13 9 0 9 -3 0 -14
-7 -8 -8 -16 -4 -18 4 -3 3 -3 -4 -2 -7 2 -15 -1 -18 -6 -4 -6 -10 -10 -14
-10 -11 0 -32 50 -26 61 4 5 0 9 -7 9 -8 0 -7 4 4 11 9 5 15 16 12 24 -4 8
-10 12 -15 9 -5 -3 -7 -10 -4 -15 4 -5 1 -9 -4 -9 -6 0 -11 5 -11 11 0 5 -5 7
-12 3 -13 -8 -3 12 20 39 17 19 3 24 -16 5 -9 -9 -12 -9 -12 -1 0 7 8 14 18
17 10 4 19 13 19 21 0 19 -7 19 -21 -1 -10 -13 -12 -12 -11 8 0 12 4 29 8 36
5 7 4 12 -2 12 -5 0 -9 9 -8 19 0 11 5 17 9 15 5 -3 5 -10 2 -16 -5 -7 -2 -8
6 -3 9 6 11 4 5 -5 -6 -9 -4 -11 5 -5 9 6 11 4 5 -5 -6 -9 -4 -11 6 -5 8 5 11
4 6 -1 -5 -5 -14 -9 -19 -9 -6 0 -13 -6 -16 -13 -3 -11 0 -12 17 -2 17 9 26 9
37 -1 8 -6 12 -14 9 -17 -2 -3 -11 0 -18 6 -10 9 -14 8 -14 -3 0 -8 5 -11 10
-8 6 3 7 1 3 -6 -4 -6 -4 -11 1 -10 20 3 25 -2 13 -16 -10 -12 -10 -15 1 -15
10 0 10 -3 1 -12 -14 -14 -16 -28 -3 -28 5 0 11 8 14 19 3 13 12 18 29 16 18
-2 24 2 25 17 2 20 1 20 -12 2 -13 -18 -14 -18 -29 1 -22 29 -19 41 4 20 11
-10 20 -14 20 -9 0 5 -14 20 -30 33 -16 13 -28 27 -25 31 3 4 -2 11 -10 14
-12 4 -13 10 -5 25 8 16 6 21 -9 26 -12 4 -18 12 -14 21 6 16 24 19 20 3 -1
-6 5 -14 13 -16 13 -4 13 -3 0 6 -8 6 -10 11 -5 11 6 0 1 7 -10 16 -17 13 -18
16 -5 25 13 9 13 10 0 6 -8 -2 -16 -15 -18 -28 -1 -13 -3 -30 -4 -36 -1 -7 -5
-13 -8 -13 -10 0 -7 62 4 79 6 10 5 12 -2 7 -8 -5 -12 0 -12 14 0 28 -23 100
-32 100 -5 0 -8 6 -8 13 0 7 -9 19 -19 27 -11 7 -18 17 -15 22 3 5 0 7 -8 6
-7 -2 -12 3 -10 10 1 8 -2 11 -7 7 -6 -3 -25 2 -42 11 -20 10 -61 17 -113 18
-45 1 -88 6 -94 10 -7 4 -12 2 -12 -4 0 -11 -40 -7 -61 6 -7 4 -9 3 -5 -4 4
-7 -1 -10 -14 -9 -11 1 -20 5 -20 10 0 5 -6 5 -13 -2 -14 -11 -47 -8 -69 5 -6
4 -8 3 -5 -2 5 -8 -66 -11 -83 -4 -3 1 -9 1 -15 0 -30 -7 -353 -4 -369 3 -11
5 -16 5 -13 0 3 -5 -13 -8 -36 -7 -23 1 -42 3 -42 4 0 1 -10 3 -22 4 -12 1
-20 0 -18 -4 2 -4 -15 -6 -38 -5 -23 2 -42 4 -42 5 0 1 -10 3 -22 4 -12 1 -20
-1 -17 -5 2 -4 -5 -7 -16 -6 -11 1 -20 5 -20 10 0 5 -7 4 -15 -3 -8 -6 -20 -8
-27 -4 -16 10 -48 13 -43 4 2 -4 -15 -6 -38 -5 -23 2 -42 4 -42 5 0 1 -10 3
-22 4 -12 1 -20 0 -18 -4 3 -5 -72 -5 -85 0 -3 1 -9 1 -15 0 -30 -7 -353 -4
-369 3 -11 5 -16 5 -13 0 3 -5 -13 -8 -36 -7 -23 1 -42 3 -42 4 0 1 -10 3 -22
4 -12 1 -20 0 -18 -4 2 -4 -15 -6 -38 -5 -23 2 -42 4 -42 5 0 1 -10 3 -22 4
-12 1 -20 -1 -17 -5 2 -4 -5 -7 -16 -6 -11 1 -20 5 -20 10 0 5 -7 4 -15 -3 -8
-6 -20 -8 -27 -4 -16 10 -48 13 -43 4 2 -4 -15 -6 -38 -5 -23 2 -42 4 -42 5 0
1 -10 3 -22 4 -12 1 -20 0 -18 -4 3 -5 -72 -5 -85 0 -3 1 -9 1 -15 0 -30 -7
-353 -4 -369 3 -11 5 -16 5 -13 0 3 -5 -13 -8 -36 -7 -23 1 -42 3 -42 4 0 1
-10 3 -22 4 -12 1 -20 0 -18 -4 2 -4 -15 -6 -38 -5 -23 2 -42 4 -42 5 0 1 -10
3 -22 4 -12 1 -20 -1 -17 -5 2 -4 -5 -7 -16 -6 -11 1 -20 5 -20 10 0 5 -7 4
-15 -3 -8 -6 -20 -8 -27 -4 -16 10 -48 13 -43 4 2 -4 -15 -6 -38 -5 -23 2 -42
4 -42 5 0 1 -10 3 -22 4 -12 1 -20 0 -18 -4 3 -5 -72 -5 -85 0 -3 1 -9 1 -15
0 -30 -7 -353 -4 -369 3 -11 5 -16 5 -13 0 3 -5 -13 -8 -36 -7 -23 1 -42 3
-42 4 0 1 -10 3 -22 4 -12 1 -20 0 -18 -4 2 -4 -15 -6 -38 -5 -23 2 -42 4 -42
5 0 1 -10 3 -22 4 -12 1 -20 -1 -17 -5 2 -4 -5 -7 -16 -6 -11 1 -20 5 -20 10
0 5 -7 4 -15 -3 -8 -6 -20 -8 -27 -4 -16 10 -48 13 -43 4 2 -4 -15 -6 -38 -5
-23 2 -42 4 -42 5 0 1 -10 3 -22 4 -12 1 -20 0 -18 -4 5 -8 -150 -4 -163 4 -5
3 -12 3 -15 0z m4603 -340 c0 -8 -4 -12 -10 -9 -5 3 -10 10 -10 16 0 5 5 9 10
9 6 0 10 -7 10 -16z m-20 -205 c0 -5 -4 -9 -8 -9 -5 0 -9 7 -9 15 0 8 4 12 9
9 4 -3 8 -9 8 -15z m19 -88 c-8 -13 -9 -12 -4 6 3 12 1 24 -5 28 -5 3 -10 14
-10 23 0 11 6 7 15 -12 11 -20 12 -33 4 -45z m-22 9 c-5 -31 -13 -32 -12 -1 0
16 3 27 7 25 4 -3 6 -14 5 -24z m78 1 c-4 -19 28 -54 41 -43 11 11 -7 -21 -25
-41 -8 -10 -11 -18 -6 -17 30 6 36 0 23 -22 -16 -30 -18 -47 -7 -54 5 -3 5
-12 -1 -23 -6 -12 -5 -22 2 -29 8 -8 8 -15 -1 -26 -8 -10 -9 -16 -1 -21 16
-10 0 -27 -19 -20 -9 4 -20 8 -26 9 -5 2 -17 6 -25 9 -8 3 -22 7 -30 9 -8 3
-15 16 -15 31 -1 14 2 24 6 21 4 -2 6 -13 4 -23 -4 -22 37 -35 54 -18 17 17
13 31 -4 17 -9 -7 -18 -10 -22 -7 -3 4 1 9 10 13 9 3 14 14 12 25 -2 10 1 19
6 19 6 0 7 5 4 10 -4 6 -10 8 -15 5 -12 -7 -40 5 -40 17 0 6 7 5 15 -2 9 -7
19 -10 22 -6 4 4 1 11 -7 16 -11 7 -5 8 18 5 17 -2 32 0 32 5 0 12 -39 57 -40
45 0 -6 5 -16 12 -23 7 -7 8 -12 3 -12 -15 1 -47 49 -42 63 3 7 6 4 6 -5 1
-23 15 -23 32 -1 12 15 12 16 -4 10 -11 -4 -16 -3 -12 3 6 9 -8 14 -27 11 -5
0 -8 4 -8 10 0 6 9 8 21 4 16 -5 19 -4 14 5 -5 8 1 20 16 31 30 23 29 23 24 0z
m-78 -83 c4 -28 -6 -18 -12 12 -2 12 -1 20 2 16 4 -4 8 -16 10 -28z m28 -38
c3 -5 2 -10 -4 -10 -5 0 -13 5 -16 10 -3 6 -2 10 4 10 5 0 13 -4 16 -10z m-30
-9 c3 -5 2 -12 -3 -15 -5 -3 -9 1 -9 9 0 17 3 19 12 6z m35 -75 c0 -8 -4 -18
-10 -21 -6 -4 -7 1 -3 11 5 13 3 15 -7 9 -9 -5 -11 -4 -6 3 10 17 26 15 26 -2z
m-16 -93 c-16 -3 -21 -10 -18 -26 4 -21 4 -21 -5 -2 -11 26 -5 35 22 34 l22
-2 -21 -4z m10 -65 c-3 -5 -10 -6 -15 -3 -5 4 -9 1 -9 -6 0 -7 -3 -10 -6 -7
-3 3 0 15 7 27 9 14 16 17 20 9 4 -7 5 -16 3 -20z m-29 -47 c3 -5 2 -12 -3
-15 -5 -3 -9 1 -9 9 0 17 3 19 12 6z m12 -73 c-3 -8 -6 -5 -6 6 -1 11 2 17 5
13 3 -3 4 -12 1 -19z m123 2 c10 -7 11 -10 2 -10 -8 0 -10 -8 -6 -26 5 -19 4
-25 -5 -20 -6 4 -8 13 -4 19 4 7 0 6 -10 -2 -14 -11 -17 -11 -17 0 0 10 -3 10
-8 3 -4 -6 -15 -10 -25 -8 -9 1 -15 -2 -11 -7 3 -5 11 -6 17 -3 7 4 9 4 5 -1
-4 -4 -2 -15 4 -24 7 -9 8 -13 4 -9 -10 9 -36 -9 -36 -24 0 -7 5 -6 13 1 8 6
17 8 20 4 4 -3 7 -1 7 6 0 7 5 9 13 5 9 -6 9 -5 -1 8 -10 12 -10 18 2 27 11 9
13 6 12 -16 -1 -16 -5 -34 -9 -41 -5 -7 -2 -14 7 -18 12 -5 13 -10 5 -26 -6
-11 -17 -17 -25 -14 -22 9 -43 -4 -37 -22 3 -10 -1 -8 -11 6 -10 12 -21 20
-25 18 -4 -3 -8 1 -8 9 0 8 4 12 8 9 4 -2 9 -1 12 3 2 5 2 3 1 -4 -2 -7 1 -15
6 -18 6 -4 11 -1 11 4 1 6 2 17 3 24 2 21 -31 50 -51 43 -23 -9 -10 4 19 19
15 7 22 19 21 33 -3 22 2 24 45 25 20 0 27 8 23 30 -1 10 11 9 29 -3z m-95
-10 c3 -5 1 -10 -4 -10 -6 0 -11 5 -11 10 0 6 2 10 4 10 3 0 8 -4 11 -10z
m-40 -31 c-3 -15 0 -19 10 -15 8 3 15 1 15 -5 0 -25 -34 -2 -35 23 -1 15 2 25
6 22 4 -2 6 -14 4 -25z m21 -81 c4 -7 4 -10 -1 -6 -4 4 -14 0 -22 -10 -13 -15
-13 -15 -3 6 12 25 16 27 26 10z m87 -82 c3 -8 -3 -12 -14 -11 -23 2 -33 11
-25 24 8 12 33 4 39 -13z m-73 -10 c0 -2 -11 -6 -25 -8 -13 -3 -22 -1 -19 3 5
9 44 13 44 5z m-30 -36 c-6 -11 -13 -20 -16 -20 -2 0 0 9 6 20 6 11 13 20 16
20 2 0 0 -9 -6 -20z m34 -115 c3 -8 1 -15 -4 -15 -6 0 -10 5 -10 11 0 5 -5 7
-12 3 -7 -4 -8 -3 -4 4 10 16 23 15 30 -3z m-34 -31 c0 -8 -4 -14 -8 -14 -4 0
-8 9 -8 19 0 11 4 17 8 15 4 -3 8 -12 8 -20z m30 -61 c0 -5 -11 -8 -24 -8 -13
0 -22 3 -19 8 2 4 13 7 24 7 10 0 19 -3 19 -7z m-30 -33 c-6 -11 -13 -20 -16
-20 -2 0 0 9 6 20 6 11 13 20 16 20 2 0 0 -9 -6 -20z m17 -19 c0 -11 -5 -17
-9 -15 -4 3 -8 0 -8 -7 0 -7 -3 -10 -6 -7 -4 5 16 48 23 48 1 0 1 -9 0 -19z
m-22 -60 c3 -5 2 -12 -3 -15 -5 -3 -9 1 -9 9 0 17 3 19 12 6z m12 -73 c-3 -8
-6 -5 -6 6 -1 11 2 17 5 13 3 -3 4 -12 1 -19z m28 -8 c3 -5 1 -10 -4 -10 -6 0
-11 5 -11 10 0 6 2 10 4 10 3 0 8 -4 11 -10z m-40 -31 c-3 -15 0 -19 10 -15 8
3 15 1 15 -5 0 -25 -34 -2 -35 23 -1 15 2 25 6 22 4 -2 6 -14 4 -25z m95 13
c0 -2 -16 -19 -36 -37 -35 -33 -35 -33 -10 -31 14 0 26 6 26 12 0 6 7 11 15
11 11 0 12 -4 4 -13 -6 -8 -7 -14 0 -18 5 -4 8 -15 6 -26 -2 -11 1 -22 6 -26
6 -4 3 -14 -7 -26 -15 -15 -16 -21 -5 -28 10 -6 9 -9 -8 -15 -12 -3 -18 -11
-15 -17 4 -7 9 -6 14 1 5 9 10 7 20 -4 11 -13 10 -19 -5 -35 -15 -16 -15 -22
-5 -35 7 -8 9 -15 5 -15 -4 0 -2 -6 4 -14 9 -11 9 -16 0 -21 -6 -4 -15 -2 -19
5 -4 7 -10 8 -13 3 -4 -6 5 -15 18 -21 28 -13 31 -24 11 -41 -16 -14 -17 -51
-2 -51 5 0 2 -6 -9 -13 -16 -13 -15 -14 13 -12 18 1 32 -2 32 -6 0 -13 -15
-18 -30 -9 -15 9 -40 3 -40 -11 0 -5 6 -8 13 -7 6 2 11 -2 10 -9 -1 -6 4 -14
13 -17 12 -4 12 -2 4 14 -7 13 -7 20 -1 20 16 0 33 -38 21 -45 -5 -3 -14 -3
-20 0 -18 11 -30 -5 -18 -25 7 -10 16 -16 22 -13 5 4 6 1 1 -8 -14 -21 -13
-48 2 -60 7 -6 10 -15 7 -21 -3 -5 -1 -15 5 -22 9 -10 6 -13 -12 -11 -23 3
-71 -28 -60 -39 3 -3 12 -1 19 5 8 6 14 6 18 0 4 -5 2 -12 -3 -16 -6 -3 -8
-12 -4 -21 4 -12 8 -12 21 -2 13 11 14 11 7 -1 -6 -11 -4 -13 8 -8 10 3 17 2
17 -2 0 -5 -6 -11 -14 -14 -9 -4 -13 -16 -12 -32 2 -17 -3 -29 -15 -35 -11 -7
-16 -18 -14 -32 6 -27 22 -44 22 -23 0 8 -3 15 -7 15 -4 0 -7 7 -7 15 0 24 12
17 24 -14 9 -24 8 -31 -4 -35 -12 -5 -13 -9 -4 -20 9 -10 9 -16 1 -21 -8 -5
-8 -11 1 -21 9 -11 9 -17 0 -28 -8 -10 -9 -16 -1 -21 16 -10 0 -27 -19 -20 -9
4 -20 8 -26 9 -5 2 -17 6 -25 9 -8 3 -22 8 -30 11 -8 3 -4 5 10 4 29 -3 50 8
50 25 0 8 -3 8 -12 -1 -7 -7 -17 -12 -22 -12 -6 0 -4 6 4 13 9 7 15 19 15 27
-1 8 3 21 8 28 6 7 6 12 0 12 -15 0 -32 -22 -27 -34 3 -7 -6 -21 -18 -32 l-23
-19 19 22 c16 20 17 25 5 40 -8 9 -9 14 -2 10 6 -4 14 -3 18 3 6 10 -6 14 -35
11 -13 -2 -13 0 -1 8 10 6 21 6 33 0 11 -6 18 -6 18 0 0 5 -6 12 -12 15 -7 3
-4 4 6 3 10 -1 21 4 24 12 3 10 0 11 -9 5 -12 -6 -12 -5 -1 8 11 14 10 18 -7
27 -16 9 -22 8 -30 -6 -6 -10 -11 -13 -11 -6 0 6 5 15 10 18 6 4 7 11 4 17 -4
6 0 6 13 -1 20 -10 33 -6 33 11 0 5 -4 7 -8 4 -4 -2 -14 -1 -21 3 -18 12 5 55
25 47 17 -7 18 6 2 22 -9 9 -16 6 -30 -16 -20 -30 -25 -23 -6 11 19 34 19 51
1 65 -9 6 -12 12 -7 12 6 0 15 -5 21 -11 7 -7 13 -7 17 -1 3 6 -3 13 -14 17
-17 5 -18 10 -9 27 17 32 18 69 2 75 -11 4 -8 10 11 23 15 9 23 19 20 23 -4 4
-20 -3 -35 -14 -32 -22 -58 -17 -38 7 7 8 17 13 23 11 6 -3 19 0 29 5 13 7 15
13 7 27 -5 10 -6 21 -3 25 6 6 -13 10 -31 7 -12 -2 -36 19 -36 32 0 6 6 3 13
-7 11 -15 17 -16 40 -5 14 6 24 16 21 20 -3 5 -14 5 -24 -1 -10 -5 -22 -10
-27 -10 -4 1 3 7 17 15 18 9 29 10 37 3 9 -7 13 -7 13 1 0 6 -11 17 -25 23
-18 8 -22 14 -15 24 12 14 10 35 -5 47 -6 5 -3 7 7 3 10 -3 20 -1 23 4 6 10
-5 13 -35 11 -10 0 -11 1 -2 5 16 8 5 25 -12 18 -18 -7 -30 12 -15 22 8 4 9 3
5 -4 -4 -7 -3 -12 2 -12 16 0 22 13 12 25 -7 8 -7 20 0 36 10 23 10 23 5 -3
-7 -35 -4 -35 26 -1 17 18 19 24 7 20 -9 -3 -19 0 -22 8 -3 8 -14 12 -26 10
-11 -2 -20 1 -20 7 0 5 7 8 15 4 8 -3 19 3 25 12 9 15 10 15 8 -3 -2 -14 4
-21 20 -23 12 -2 22 1 22 7 0 6 -8 8 -17 4 -15 -5 -14 -3 2 11 18 15 19 16 1
9 -13 -4 -17 -2 -14 8 3 8 -1 27 -9 42 -11 22 -20 28 -35 24 -24 -7 -17 1 14
18 13 6 22 19 21 30 -1 11 2 22 7 25 11 7 50 8 50 2z m-90 -102 c-6 -11 -13
-20 -16 -20 -2 0 0 9 6 20 6 11 13 20 16 20 2 0 0 -9 -6 -20z m24 -16 c3 -8 2
-12 -4 -9 -6 3 -10 -2 -10 -11 0 -10 -3 -15 -6 -11 -6 5 4 47 11 47 1 0 6 -7
9 -16z m-31 -89 c-3 -9 -8 -14 -10 -11 -3 3 -2 9 2 15 9 16 15 13 8 -4z m8
-132 c-12 -20 -14 -14 -5 12 4 9 9 14 11 11 3 -2 0 -13 -6 -23z m14 -24 c-5
-14 -2 -25 6 -30 10 -6 10 -9 2 -9 -6 0 -15 5 -18 10 -7 11 3 50 11 50 3 0 2
-10 -1 -21z m18 -129 c3 -11 1 -20 -4 -20 -5 0 -9 9 -9 20 0 11 2 20 4 20 2 0
6 -9 9 -20z m-3 -101 c0 -6 -4 -7 -10 -4 -5 3 -10 -1 -10 -10 0 -9 4 -13 10
-10 6 3 7 -1 4 -9 -8 -22 -11 -20 -22 12 -8 24 -7 28 9 29 11 1 19 -3 19 -8z
m-21 -73 c0 -6 -3 -5 -6 2 -2 6 -8 10 -12 8 -4 -3 -7 4 -7 15 0 19 1 19 13 3
7 -10 13 -23 12 -28z m-15 -52 c3 -8 2 -12 -4 -9 -6 3 -10 10 -10 16 0 14 7
11 14 -7z m26 6 c0 -5 -2 -10 -4 -10 -3 0 -8 5 -11 10 -3 6 -1 10 4 10 6 0 11
-4 11 -10z m-7 -35 c-3 -9 -8 -14 -10 -11 -3 3 -2 9 2 15 9 16 15 13 8 -4z
m-20 -30 c4 -8 3 -16 -1 -19 -4 -3 -9 4 -9 15 -2 23 3 25 10 4z m2 -55 c3 -5
1 -10 -4 -10 -6 0 -11 5 -11 10 0 6 2 10 4 10 3 0 8 -4 11 -10z m39 -55 c-4
-8 -10 -15 -15 -15 -4 0 -6 7 -3 15 4 8 10 15 15 15 4 0 6 -7 3 -15z m-34 -19
c0 -3 -4 -8 -10 -11 -5 -3 -10 -1 -10 4 0 6 5 11 10 11 6 0 10 -2 10 -4z m-9
-89 c-10 -9 -11 -8 -5 6 3 10 9 15 12 12 3 -3 0 -11 -7 -18z m20 -76 c-21 -6
-22 -8 -7 -20 9 -7 16 -18 16 -23 0 -6 -9 0 -19 13 -22 28 -19 39 12 38 21 -1
21 -1 -2 -8z m84 -11 c6 0 2 -5 -8 -11 -14 -8 -15 -14 -7 -24 6 -8 17 -12 24
-9 7 3 13 -1 13 -8 0 -7 2 -20 4 -28 3 -10 -3 -15 -18 -15 -24 0 -26 -5 -17
-30 3 -8 11 -12 17 -8 6 4 7 1 2 -8 -14 -21 -13 -48 2 -60 7 -6 10 -15 7 -21
-3 -5 -1 -15 5 -22 9 -10 6 -13 -12 -11 -23 3 -71 -28 -60 -39 3 -3 12 -1 19
5 8 6 14 6 18 0 4 -5 2 -12 -3 -16 -6 -3 -8 -12 -4 -21 4 -12 8 -12 21 -2 13
11 14 11 7 -1 -6 -11 -4 -13 8 -8 10 3 17 2 17 -3 0 -6 -3 -10 -7 -10 -5 0
-19 -9 -33 -20 -21 -17 -22 -19 -5 -14 15 4 15 2 -4 -9 -15 -9 -20 -17 -12
-21 6 -4 11 -1 11 6 0 8 5 7 17 -5 16 -15 16 -18 -2 -37 -14 -16 -15 -22 -5
-35 7 -8 9 -15 5 -15 -4 0 -2 -6 4 -14 9 -11 9 -16 0 -21 -6 -4 -15 -2 -19 5
-4 7 -10 8 -13 3 -4 -6 5 -15 18 -21 28 -13 31 -24 11 -41 -16 -14 -17 -51 -2
-51 5 0 2 -6 -9 -13 -16 -13 -15 -14 13 -12 18 1 32 -2 32 -6 0 -13 -15 -18
-30 -9 -15 9 -40 3 -40 -11 0 -5 6 -8 13 -7 6 2 11 -2 10 -9 -1 -6 4 -14 13
-17 12 -4 12 -2 4 14 -7 13 -7 20 -1 20 16 0 33 -38 21 -45 -5 -3 -14 -3 -20
0 -18 11 -30 -5 -18 -25 7 -10 16 -16 22 -13 5 4 6 1 1 -8 -14 -21 -13 -48 2
-60 7 -6 10 -15 7 -21 -3 -5 -1 -15 5 -22 9 -10 6 -13 -12 -11 -23 3 -71 -28
-60 -39 3 -3 12 -1 19 5 8 6 14 6 18 0 4 -5 2 -12 -3 -16 -6 -3 -8 -12 -4 -21
4 -12 8 -12 21 -2 13 11 14 11 7 -1 -6 -11 -4 -13 8 -8 10 3 17 2 17 -2 0 -5
-6 -11 -14 -14 -9 -4 -13 -16 -12 -32 2 -17 -3 -29 -15 -35 -11 -7 -16 -18
-14 -32 6 -27 22 -44 22 -23 0 8 -3 15 -7 15 -4 0 -7 7 -7 15 0 24 12 17 24
-14 9 -24 8 -31 -4 -35 -12 -5 -13 -9 -4 -20 9 -10 9 -16 1 -21 -8 -5 -8 -11
1 -21 9 -11 9 -17 0 -28 -8 -10 -9 -16 -1 -21 16 -10 0 -27 -19 -20 -9 4 -20
8 -26 9 -5 2 -17 6 -25 9 -8 3 -22 8 -30 11 -8 3 -4 5 10 4 29 -3 50 8 50 25
0 8 -3 8 -12 -1 -7 -7 -17 -12 -22 -12 -6 0 -4 6 4 13 9 7 15 19 15 27 -1 8 3
21 8 28 6 7 6 12 0 12 -15 0 -32 -22 -27 -34 3 -7 -6 -21 -18 -32 l-23 -19 19
22 c16 20 17 25 5 40 -8 9 -9 14 -2 10 6 -4 14 -3 18 3 6 10 -6 14 -35 11 -13
-2 -13 0 -1 8 10 6 21 6 33 0 11 -6 18 -6 18 0 0 5 -6 12 -12 15 -7 3 -4 4 6
3 10 -1 21 4 24 12 3 10 0 11 -9 5 -12 -6 -12 -5 -1 8 11 14 10 18 -7 27 -16
9 -22 8 -30 -6 -6 -10 -11 -13 -11 -6 0 6 5 15 10 18 6 4 7 11 4 17 -4 6 0 6
13 -1 20 -10 33 -6 33 11 0 5 -4 7 -8 4 -4 -2 -14 -1 -21 3 -18 12 5 55 25 47
17 -7 18 6 2 22 -9 9 -16 6 -30 -16 -20 -30 -25 -23 -6 11 19 34 19 51 1 65
-9 6 -12 12 -7 12 6 0 15 -5 21 -11 7 -7 13 -7 17 -1 3 6 -3 13 -14 17 -17 5
-18 10 -9 27 17 32 18 69 2 75 -11 4 -8 10 11 23 15 9 23 19 20 23 -4 4 -20
-3 -35 -14 -32 -22 -58 -17 -38 7 7 8 17 13 23 11 6 -3 19 0 29 5 13 7 15 13
7 27 -5 10 -6 21 -3 25 6 6 -13 10 -31 7 -12 -2 -36 19 -36 32 0 6 6 3 13 -7
11 -15 17 -16 40 -5 14 6 24 16 20 22 -3 6 -1 7 5 3 7 -4 12 -2 12 4 0 6 -11
16 -25 22 -18 8 -22 14 -15 24 12 14 10 35 -5 47 -6 5 -3 7 7 3 10 -3 20 -1
23 4 6 10 -5 13 -35 11 -10 0 -11 1 -2 5 16 8 5 25 -12 18 -18 -7 -30 12 -15
22 8 4 9 3 5 -4 -4 -7 -3 -12 2 -12 16 0 22 13 12 25 -7 8 -7 20 0 36 10 23
10 23 5 -3 -7 -35 -4 -35 26 -1 17 18 19 24 7 20 -10 -3 -19 0 -22 9 -8 22 13
57 30 50 17 -7 18 6 2 22 -9 9 -16 6 -30 -16 -20 -30 -25 -23 -6 11 19 34 19
51 1 65 -9 6 -12 12 -7 12 6 0 15 -5 21 -11 7 -7 13 -7 17 -1 3 6 -3 13 -14
17 -17 5 -18 10 -9 27 17 32 18 69 2 75 -11 4 -8 10 11 23 15 9 23 19 20 23
-4 4 -20 -3 -35 -14 -32 -22 -58 -17 -38 7 7 8 18 13 24 10 7 -2 18 0 25 4 17
10 23 43 7 37 -7 -3 -11 -10 -9 -16 1 -6 -2 -11 -8 -11 -13 0 -13 13 2 28 8 8
8 15 -1 26 -14 17 1 26 34 21 11 -2 25 -4 30 -5z m-101 -50 c-6 -6 -10 -3 -10
10 0 13 4 16 10 10 7 -7 7 -13 0 -20z m36 -101 c0 -6 -4 -7 -10 -4 -5 3 -10
-1 -10 -10 0 -9 4 -13 10 -10 6 3 7 -1 4 -9 -8 -22 -11 -20 -22 12 -8 24 -7
28 9 29 11 1 19 -3 19 -8z m-21 -73 c0 -6 -3 -5 -6 2 -2 6 -8 10 -12 8 -4 -3
-7 4 -7 15 0 19 1 19 13 3 7 -10 13 -23 12 -28z m-15 -52 c3 -8 2 -12 -4 -9
-6 3 -10 10 -10 16 0 14 7 11 14 -7z m26 6 c0 -5 -2 -10 -4 -10 -3 0 -8 5 -11
10 -3 6 -1 10 4 10 6 0 11 -4 11 -10z m-7 -35 c-3 -9 -8 -14 -10 -11 -3 3 -2
9 2 15 9 16 15 13 8 -4z m-20 -30 c4 -8 3 -16 -1 -19 -4 -3 -9 4 -9 15 -2 23
3 25 10 4z m0 -70 c-3 -9 -8 -14 -10 -11 -3 3 -2 9 2 15 9 16 15 13 8 -4z m8
-132 c-12 -20 -14 -14 -5 12 4 9 9 14 11 11 3 -2 0 -13 -6 -23z m14 -24 c-5
-14 -1 -25 12 -35 16 -12 16 -15 3 -24 -8 -5 -19 -10 -25 -10 -5 1 -2 5 8 11
17 10 17 12 1 23 -11 9 -14 19 -10 34 4 12 10 22 12 22 3 0 2 -9 -1 -21z m18
-129 c3 -11 1 -20 -4 -20 -5 0 -9 9 -9 20 0 11 2 20 4 20 2 0 6 -9 9 -20z m-3
-101 c0 -6 -4 -7 -10 -4 -5 3 -10 -1 -10 -10 0 -9 4 -13 10 -10 6 3 7 -1 4 -9
-8 -22 -11 -20 -22 12 -8 24 -7 28 9 29 11 1 19 -3 19 -8z m-21 -73 c0 -6 -3
-5 -6 2 -2 6 -8 10 -12 8 -4 -3 -7 4 -7 15 0 19 1 19 13 3 7 -10 13 -23 12
-28z m-15 -52 c3 -8 2 -12 -4 -9 -6 3 -10 10 -10 16 0 14 7 11 14 -7z m26 6
c0 -5 -2 -10 -4 -10 -3 0 -8 5 -11 10 -3 6 -1 10 4 10 6 0 11 -4 11 -10z m-7
-35 c-3 -9 -8 -14 -10 -11 -3 3 -2 9 2 15 9 16 15 13 8 -4z m-20 -30 c4 -8 3
-16 -1 -19 -4 -3 -9 4 -9 15 -2 23 3 25 10 4z m2 -55 c3 -5 1 -10 -4 -10 -6 0
-11 5 -11 10 0 6 2 10 4 10 3 0 8 -4 11 -10z m39 -55 c-4 -8 -10 -15 -15 -15
-4 0 -6 7 -3 15 4 8 10 15 15 15 4 0 6 -7 3 -15z m-34 -19 c0 -3 -4 -8 -10
-11 -5 -3 -10 -1 -10 4 0 6 5 11 10 11 6 0 10 -2 10 -4z m-9 -89 c-10 -9 -11
-8 -5 6 3 10 9 15 12 12 3 -3 0 -11 -7 -18z m20 -76 c-21 -6 -22 -8 -7 -20 9
-7 16 -18 16 -23 0 -6 -9 0 -19 13 -22 28 -19 39 12 38 21 -1 21 -1 -2 -8z
m84 -11 c6 0 2 -5 -8 -11 -14 -8 -15 -14 -7 -24 6 -8 17 -12 24 -9 7 3 13 -1
13 -8 0 -7 2 -20 4 -28 3 -10 -3 -15 -18 -15 -24 0 -26 -5 -17 -30 3 -8 11
-12 17 -8 6 4 7 1 2 -8 -14 -21 -13 -48 2 -60 7 -6 10 -15 7 -21 -3 -5 -1 -15
5 -22 9 -10 6 -13 -12 -11 -23 3 -71 -28 -60 -39 3 -3 12 -1 19 5 8 6 14 6 18
0 4 -5 2 -12 -3 -16 -6 -3 -8 -12 -4 -21 4 -12 8 -12 21 -2 13 11 14 11 7 -1
-6 -11 -4 -13 8 -8 10 3 17 2 17 -2 0 -5 -7 -12 -16 -15 -8 -3 -12 -10 -9 -16
3 -5 -5 -15 -19 -21 -14 -7 -23 -16 -19 -22 3 -5 9 -4 13 3 5 9 9 9 14 1 4 -6
2 -11 -4 -11 -6 0 -4 -11 6 -25 15 -23 15 -25 0 -19 -19 7 -21 -7 -4 -24 7 -7
8 -12 4 -12 -5 0 -3 -7 4 -15 9 -11 10 -19 3 -26 -12 -12 -43 -1 -43 15 0 6
-5 4 -10 -4 -14 -22 -12 -29 8 -25 23 4 49 -11 38 -22 -5 -4 -11 -2 -13 5 -3
6 -10 9 -16 5 -17 -11 -77 -11 -70 -1 2 5 14 6 26 2 18 -5 20 -4 10 7 -15 16
-17 33 -3 24 6 -3 10 -2 10 4 0 5 -3 11 -7 14 -5 2 -3 2 4 1 7 -2 15 1 18 6 4
6 1 10 -5 10 -7 0 -10 6 -7 14 3 7 0 13 -6 12 -7 0 -12 2 -12 5 0 3 -6 13 -13
21 -9 11 -10 22 -2 39 10 22 10 21 4 -6 l-6 -30 26 24 c29 27 36 52 9 30 -9
-8 -14 -9 -10 -2 4 6 2 13 -4 15 -9 3 -9 10 0 27 7 13 18 20 27 17 17 -7 18 6
2 22 -9 9 -16 6 -30 -16 -20 -30 -25 -23 -6 11 19 34 19 51 1 65 -9 6 -12 12
-7 12 6 0 15 -5 21 -11 7 -7 13 -7 17 -1 3 6 -3 13 -14 17 -17 5 -18 10 -9 27
17 32 18 69 2 75 -11 4 -8 10 11 23 15 9 23 19 20 23 -4 4 -20 -3 -35 -14 -32
-22 -58 -17 -38 7 7 8 18 13 24 10 7 -2 18 0 25 4 17 10 23 43 7 37 -7 -3 -11
-10 -9 -16 1 -6 -2 -11 -8 -11 -13 0 -13 13 2 28 8 8 8 15 -1 26 -14 17 1 26
34 21 11 -2 25 -4 30 -5z m-101 -50 c-6 -6 -10 -3 -10 10 0 13 4 16 10 10 7
-7 7 -13 0 -20z m36 -101 c0 -6 -4 -7 -10 -4 -5 3 -10 -1 -10 -10 0 -9 4 -13
10 -10 6 3 7 -1 4 -9 -8 -22 -11 -20 -22 12 -8 24 -7 28 9 29 11 1 19 -3 19
-8z m-21 -73 c0 -6 -3 -5 -6 2 -2 6 -8 10 -12 8 -4 -3 -7 4 -7 15 0 19 1 19
13 3 7 -10 13 -23 12 -28z m-15 -52 c3 -8 2 -12 -4 -9 -6 3 -10 10 -10 16 0
14 7 11 14 -7z m26 6 c0 -5 -2 -10 -4 -10 -3 0 -8 5 -11 10 -3 6 -1 10 4 10 6
0 11 -4 11 -10z m-7 -35 c-3 -9 -8 -14 -10 -11 -3 3 -2 9 2 15 9 16 15 13 8
-4z m-20 -30 c4 -8 3 -16 -1 -19 -4 -3 -9 4 -9 15 -2 23 3 25 10 4z m0 -70
c-7 -21 -12 -19 -10 4 0 11 5 18 9 15 4 -3 5 -11 1 -19z m0 -60 c-3 -9 -8 -14
-10 -11 -3 3 -2 9 2 15 9 16 15 13 8 -4z m37 -30 c0 -1 -12 -2 -26 -2 -17 0
-22 2 -13 7 10 7 39 3 39 -5z m-20 -23 c0 -5 -7 -17 -15 -28 -14 -18 -14 -17
-4 9 12 27 19 34 19 19z m90 -126 c0 -3 -4 -8 -10 -11 -5 -3 -10 -1 -10 4 0 6
5 11 10 11 6 0 10 -2 10 -4z m-105 -67 c-4 -5 -12 -9 -18 -8 -9 0 -8 2 1 6 6
2 9 10 6 15 -4 7 -2 8 5 4 6 -4 9 -12 6 -17z m3 -52 c8 -10 6 -13 -11 -14 -12
0 -16 1 -9 4 6 3 10 9 6 14 -8 14 2 11 14 -4z m-18 -56 c0 -6 -5 -13 -12 -17
-6 -4 -8 -3 -4 4 3 5 0 13 -6 15 -8 3 -6 6 5 6 9 1 17 -3 17 -8z m-26 -27 c3
-8 2 -12 -4 -9 -6 3 -10 1 -10 -6 0 -7 -2 -10 -5 -7 -5 5 4 38 10 38 2 0 6 -7
9 -16z m46 -53 c22 -21 26 -31 17 -40 -8 -8 -8 -14 1 -23 7 -7 12 -17 12 -22
0 -6 -7 -3 -14 6 -12 16 -14 16 -25 -8 -6 -14 -9 -29 -6 -34 3 -4 -5 -11 -18
-15 -33 -11 -82 -11 -80 0 4 13 53 14 53 1 0 -10 35 33 35 44 0 3 4 10 8 17 4
6 2 15 -4 19 -7 4 -9 3 -5 -4 4 -7 -1 -10 -14 -7 -11 2 -20 0 -20 -6 0 -5 5
-9 11 -9 8 0 8 -4 0 -14 -7 -8 -21 -13 -32 -11 -11 2 -17 0 -14 -5 3 -6 0 -7
-8 -5 -17 7 -53 -30 -37 -40 5 -3 8 -11 5 -16 -4 -5 -2 -9 4 -9 6 0 8 -7 5
-15 -8 -19 -21 -11 -44 27 -10 18 -20 25 -24 19 -4 -6 -2 -11 3 -11 16 0 13
-17 -3 -23 -9 -4 -12 2 -10 20 2 18 -1 23 -12 19 -9 -4 -12 -2 -8 5 4 6 0 15
-7 20 -7 4 -10 11 -6 15 4 4 14 -2 23 -14 8 -12 19 -20 24 -17 5 3 14 -3 20
-12 10 -16 11 -16 7 4 -3 13 -1 26 5 29 5 3 1 12 -9 21 -16 13 -16 14 -1 9 10
-3 19 2 22 12 4 13 5 13 4 -3 -1 -37 2 -46 12 -40 5 3 7 12 4 19 -6 16 15 33
25 20 3 -5 14 -10 23 -12 12 -2 16 2 12 13 -3 8 -9 13 -13 11 -3 -2 -7 7 -7
20 -1 15 3 23 10 21 6 -2 10 -11 8 -19 -1 -8 5 -15 13 -15 9 0 14 5 12 11 -3
6 0 19 5 29 6 13 4 19 -7 24 -13 5 -14 7 -3 14 18 12 16 12 48 -20z m-60 -1
c8 -5 12 -11 10 -14 -3 -2 -14 2 -24 10 -22 15 -10 19 14 4z m-40 -10 c0 -5
-5 -10 -11 -10 -5 0 -7 5 -4 10 3 6 8 10 11 10 2 0 4 -4 4 -10z m-14 -33 c8 3
14 1 14 -5 0 -16 -35 -7 -36 9 -1 8 1 9 3 2 2 -7 11 -9 19 -6z m-69 -73 c-9
-9 -28 6 -21 18 4 6 10 6 17 -1 6 -6 8 -13 4 -17z m153 22 c0 -2 -8 -10 -17
-17 -16 -13 -17 -12 -4 4 13 16 21 21 21 13z m-3672 -41 c-3 -3 -9 2 -12 12
-6 14 -5 15 5 6 7 -7 10 -15 7 -18z m1920 0 c-3 -3 -9 2 -12 12 -6 14 -5 15 5
6 7 -7 10 -15 7 -18z m1538 -3 c-4 -3 -14 2 -24 12 -16 18 -16 18 6 6 13 -6
21 -14 18 -18z m-4356 14 c0 -3 -4 -8 -10 -11 -5 -3 -10 -1 -10 4 0 6 5 11 10
11 6 0 10 -2 10 -4z m40 -6 c0 -5 -2 -10 -4 -10 -3 0 -8 5 -11 10 -3 6 -1 10
4 10 6 0 11 -4 11 -10z m63 -7 c-4 -9 -10 -10 -24 -2 -24 13 -24 14 5 14 14 0
22 -5 19 -12z m75 -8 c-3 -3 -9 2 -12 12 -6 14 -5 15 5 6 7 -7 10 -15 7 -18z
m155 10 c-3 -9 -8 -14 -10 -11 -3 3 -2 9 2 15 9 16 15 13 8 -4z m63 0 c-3 -8
0 -15 6 -15 6 0 9 -3 5 -6 -10 -11 -26 6 -20 21 3 8 7 15 10 15 3 0 3 -7 -1
-15z m138 4 c-2 -4 2 -10 8 -12 7 -3 8 -6 2 -6 -5 -1 -18 5 -28 12 -16 12 -16
13 3 13 11 0 18 -3 15 -7z m120 0 c-2 -4 2 -10 8 -12 7 -3 8 -6 2 -6 -5 -1
-18 5 -28 12 -16 12 -16 13 3 13 11 0 18 -3 15 -7z m71 1 c3 -6 -1 -7 -9 -4
-18 7 -21 14 -7 14 6 0 13 -4 16 -10z m35 6 c0 -3 -4 -8 -10 -11 -5 -3 -10 -1
-10 4 0 6 5 11 10 11 6 0 10 -2 10 -4z m18 -22 c0 -17 -3 -22 -8 -13 -5 6 -6
18 -3 26 8 19 11 16 11 -13z m172 12 c-7 -7 -13 -7 -20 0 -6 6 -3 10 10 10 13
0 16 -4 10 -10z m584 3 c-2 -4 2 -10 8 -12 7 -3 8 -6 2 -6 -5 -1 -18 5 -28 12
-16 12 -16 13 3 13 11 0 18 -3 15 -7z m71 1 c3 -6 -1 -7 -9 -4 -18 7 -21 14
-7 14 6 0 13 -4 16 -10z m69 -2 c-3 -4 -11 -5 -19 -1 -21 7 -19 12 4 10 11 0
18 -5 15 -9z m120 0 c-3 -4 -11 -5 -19 -1 -21 7 -19 12 4 10 11 0 18 -5 15 -9z
m66 8 c0 -2 -7 -7 -16 -10 -8 -3 -12 -2 -9 4 6 10 25 14 25 6z m145 -14 c-3
-3 -11 0 -18 7 -9 10 -8 11 6 5 10 -3 15 -9 12 -12z m93 -7 c-3 -3 -9 2 -12
12 -6 14 -5 15 5 6 7 -7 10 -15 7 -18z m124 5 c-6 -17 -22 -30 -37 -30 -5 1
-2 5 8 11 13 7 15 14 8 23 -7 8 -5 12 8 12 13 0 17 -5 13 -16z m31 5 c-3 -9
-8 -14 -10 -11 -3 3 -2 9 2 15 9 16 15 13 8 -4z m201 4 c-2 -4 2 -10 8 -12 7
-3 8 -6 2 -6 -5 -1 -18 5 -28 12 -16 12 -16 13 3 13 11 0 18 -3 15 -7z m120 0
c-2 -4 2 -10 8 -12 7 -3 8 -6 2 -6 -5 -1 -18 5 -28 12 -16 12 -16 13 3 13 11
0 18 -3 15 -7z m71 1 c3 -6 -1 -7 -9 -4 -18 7 -21 14 -7 14 6 0 13 -4 16 -10z
m35 6 c0 -3 -4 -8 -10 -11 -5 -3 -10 -1 -10 4 0 6 5 11 10 11 6 0 10 -2 10 -4z
m18 -22 c0 -17 -3 -22 -8 -13 -5 6 -6 18 -3 26 8 19 11 16 11 -13z m172 12
c-7 -7 -13 -7 -20 0 -6 6 -3 10 10 10 13 0 16 -4 10 -10z m584 3 c-2 -4 2 -10
8 -12 7 -3 8 -6 2 -6 -5 -1 -18 5 -28 12 -16 12 -16 13 3 13 11 0 18 -3 15 -7z
m71 1 c3 -6 -1 -7 -9 -4 -18 7 -21 14 -7 14 6 0 13 -4 16 -10z m69 -2 c-3 -4
-11 -5 -19 -1 -21 7 -19 12 4 10 11 0 18 -5 15 -9z m66 8 c0 -2 -7 -7 -16 -10
-8 -3 -12 -2 -9 4 6 10 25 14 25 6z m438 -21 c-3 -3 -9 2 -12 12 -6 14 -5 15
5 6 7 -7 10 -15 7 -18z m45 5 c-3 -12 -8 -19 -11 -16 -5 6 5 36 12 36 2 0 2
-9 -1 -20z m-4016 -12 c-3 -8 -6 -5 -6 6 -1 11 2 17 5 13 3 -3 4 -12 1 -19z
m26 -3 c-7 -21 -12 -19 -10 4 0 11 5 18 9 15 4 -3 5 -11 1 -19z m64 3 c-3 -8
-6 -5 -6 6 -1 11 2 17 5 13 3 -3 4 -12 1 -19z m98 -16 c-6 -8 -35 12 -35 24 0
11 4 10 18 -3 10 -10 18 -19 17 -21z m125 23 c0 -8 -4 -15 -10 -15 -5 0 -7 7
-4 15 4 8 8 15 10 15 2 0 4 -7 4 -15z m200 -10 c0 -2 -7 -6 -16 -9 -8 -3 -12
-2 -9 4 3 6 -1 10 -10 10 -9 0 -13 -4 -10 -10 3 -5 2 -10 -4 -10 -5 0 -9 8 -8
19 1 16 5 17 29 9 15 -6 28 -11 28 -13z m242 0 c3 -13 1 -22 -3 -19 -9 5 -13
44 -5 44 2 0 6 -11 8 -25z m91 10 c-3 -9 -8 -14 -10 -11 -3 3 -2 9 2 15 9 16
15 13 8 -4z m27 0 c0 -8 -4 -15 -10 -15 -5 0 -7 7 -4 15 4 8 8 15 10 15 2 0 4
-7 4 -15z m87 -7 c-3 -8 -6 -5 -6 6 -1 11 2 17 5 13 3 -3 4 -12 1 -19z m170 0
c-3 -8 -6 -5 -6 6 -1 11 2 17 5 13 3 -3 4 -12 1 -19z m263 -3 c0 -2 -7 -6 -16
-9 -8 -3 -12 -2 -9 4 3 6 -1 10 -10 10 -9 0 -13 -4 -10 -10 3 -5 2 -10 -4 -10
-5 0 -9 8 -8 19 1 16 5 17 29 9 15 -6 28 -11 28 -13z m480 0 c0 -2 -7 -6 -16
-9 -8 -3 -12 -2 -9 4 3 6 -1 10 -10 10 -9 0 -13 -4 -10 -10 3 -5 2 -10 -4 -10
-5 0 -9 8 -8 19 1 16 5 17 29 9 15 -6 28 -11 28 -13z m137 3 c-3 -8 -6 -5 -6
6 -1 11 2 17 5 13 3 -3 4 -12 1 -19z m223 7 c0 -8 -4 -15 -10 -15 -5 0 -7 7
-4 15 4 8 8 15 10 15 2 0 4 -7 4 -15z m200 -10 c0 -2 -7 -6 -16 -9 -8 -3 -12
-2 -9 4 3 6 -1 10 -10 10 -9 0 -13 -4 -10 -10 3 -5 2 -10 -4 -10 -5 0 -9 8 -8
19 1 16 5 17 29 9 15 -6 28 -11 28 -13z m242 0 c3 -13 1 -22 -3 -19 -9 5 -13
44 -5 44 2 0 6 -11 8 -25z m91 10 c-3 -9 -8 -14 -10 -11 -3 3 -2 9 2 15 9 16
15 13 8 -4z m27 0 c0 -8 -4 -15 -10 -15 -5 0 -7 7 -4 15 4 8 8 15 10 15 2 0 4
-7 4 -15z m87 -7 c-3 -8 -6 -5 -6 6 -1 11 2 17 5 13 3 -3 4 -12 1 -19z m170 0
c-3 -8 -6 -5 -6 6 -1 11 2 17 5 13 3 -3 4 -12 1 -19z m263 -3 c0 -2 -7 -6 -16
-9 -8 -3 -12 -2 -9 4 3 6 -1 10 -10 10 -9 0 -13 -4 -10 -10 3 -5 2 -10 -4 -10
-5 0 -9 8 -8 19 1 16 5 17 29 9 15 -6 28 -11 28 -13z m340 15 c-8 -5 -19 -10
-25 -10 -5 0 -3 5 5 10 8 5 20 10 25 10 6 0 3 -5 -5 -10z m400 0 c0 -5 -4 -10
-10 -10 -5 0 -10 5 -10 10 0 6 5 10 10 10 6 0 10 -4 10 -10z m-4126 -12 c-5
-8 -1 -9 12 -4 14 5 16 4 8 -4 -6 -6 -19 -8 -28 -4 -14 5 -15 9 -4 15 18 12
20 11 12 -3z m661 2 c3 -5 1 -10 -4 -10 -6 0 -11 5 -11 10 0 6 2 10 4 10 3 0
8 -4 11 -10z m880 0 c3 -5 1 -10 -4 -10 -6 0 -11 5 -11 10 0 6 2 10 4 10 3 0
8 -4 11 -10z m45 6 c0 -2 -7 -7 -16 -10 -8 -3 -12 -2 -9 4 6 10 25 14 25 6z
m995 -6 c3 -5 1 -10 -4 -10 -6 0 -11 5 -11 10 0 6 2 10 4 10 3 0 8 -4 11 -10z
m880 0 c3 -5 1 -10 -4 -10 -6 0 -11 5 -11 10 0 6 2 10 4 10 3 0 8 -4 11 -10z
m45 6 c0 -2 -7 -7 -16 -10 -8 -3 -12 -2 -9 4 6 10 25 14 25 6z m-2995 -16 c-3
-5 -12 -10 -18 -10 -7 0 -6 4 3 10 19 12 23 12 15 0z m550 0 c3 -5 1 -10 -4
-10 -6 0 -11 5 -11 10 0 6 2 10 4 10 3 0 8 -4 11 -10z m755 -11 c0 -4 -7 -6
-15 -3 -8 4 -15 10 -15 15 0 4 7 6 15 3 8 -4 15 -10 15 -15z m254 5 c3 -8 2
-12 -4 -9 -6 3 -10 10 -10 16 0 14 7 11 14 -7z m361 6 c-3 -5 -12 -10 -18 -10
-7 0 -6 4 3 10 19 12 23 12 15 0z m550 0 c3 -5 1 -10 -4 -10 -6 0 -11 5 -11
10 0 6 2 10 4 10 3 0 8 -4 11 -10z m988 3 c-7 -2 -19 -2 -25 0 -7 3 -2 5 12 5
14 0 19 -2 13 -5z m-83 -13 c0 -5 -7 -7 -15 -4 -8 4 -15 8 -15 10 0 2 7 4 15
4 8 0 15 -4 15 -10z m164 -5 c3 -8 -2 -21 -10 -30 -14 -13 -14 -15 1 -15 9 0
14 -4 11 -9 -4 -5 -1 -11 5 -13 7 -2 4 -10 -7 -18 -16 -13 -17 -13 -12 2 4 9
-1 23 -12 33 -15 14 -17 21 -8 41 13 27 23 31 32 9z m-4280 -10 c-7 -16 -24
-21 -24 -6 0 8 7 13 27 20 1 1 0 -6 -3 -14z m96 -4 c8 -16 7 -19 -8 -16 -9 2
-18 4 -19 5 -2 2 -7 3 -12 4 -5 0 -13 5 -18 10 -4 5 -3 7 2 3 6 -3 17 -2 25 4
19 11 18 12 30 -10z m655 0 c-3 -5 -1 -12 5 -16 7 -4 7 -13 -1 -26 -10 -20
-11 -20 -26 -2 -8 10 -12 13 -9 6 7 -14 -10 -27 -18 -14 -7 10 -25 9 -43 -2
-16 -10 -40 1 -40 19 0 10 6 13 16 8 9 -4 26 -6 39 -6 78 5 82 6 72 16 -13 13
-13 26 1 26 5 0 8 -4 4 -9z m1920 0 c-3 -5 -1 -12 5 -16 7 -4 7 -13 -1 -26
-10 -20 -11 -20 -26 -2 -8 10 -12 13 -9 6 7 -14 -10 -27 -18 -14 -7 10 -25 9
-43 -2 -16 -10 -40 1 -40 19 0 10 6 13 16 8 9 -4 26 -6 39 -6 78 5 82 6 72 16
-13 13 -13 26 1 26 5 0 8 -4 4 -9z m-989 -33 c3 -4 12 -4 20 -1 8 3 14 -1 14
-7 0 -9 5 -8 18 3 17 15 18 15 17 -13 0 -21 -3 -26 -12 -18 -7 5 -16 7 -21 4
-6 -3 -15 0 -21 7 -12 15 -39 16 -60 2 -10 -5 -12 -4 -7 3 4 7 1 12 -6 12 -9
0 -9 3 2 10 15 10 45 8 56 -2z m297 -4 c4 -1 10 -2 15 -3 4 -1 -1 -6 -11 -12
-13 -8 -22 -7 -32 1 -12 10 -16 9 -21 -4 -6 -15 -9 -15 -30 -1 -14 9 -24 11
-24 5 0 -6 -4 -8 -10 -5 -18 11 -10 20 20 21 17 1 30 -3 30 -8 0 -5 7 -2 16 6
8 9 21 13 27 9 7 -4 15 -8 20 -9z m194 0 c0 -6 -10 -10 -21 -9 -12 0 -27 -4
-35 -9 -11 -8 -13 -8 -7 2 4 7 2 12 -6 12 -10 0 -10 2 1 9 19 12 68 9 68 -5z
m1429 4 c3 -4 12 -4 20 -1 8 3 14 -1 14 -7 0 -9 5 -8 18 3 17 15 18 15 17 -13
0 -21 -3 -26 -12 -18 -7 5 -16 7 -21 4 -6 -3 -15 0 -21 7 -12 15 -39 16 -60 2
-10 -5 -12 -4 -7 3 4 7 1 12 -6 12 -9 0 -9 3 2 10 15 10 45 8 56 -2z m750 -1
c4 -4 13 -2 20 4 7 6 14 6 18 1 3 -6 -1 -16 -10 -23 -14 -11 -18 -10 -29 4 -9
13 -14 14 -17 6 -3 -9 -6 -8 -10 3 -7 16 14 20 28 5z m90 -23 c-1 -27 -11 -32
-20 -9 -3 8 0 15 6 15 7 0 6 5 -2 15 -11 13 -10 14 2 10 9 -4 15 -17 14 -31z
m-3882 9 c3 -8 4 -19 0 -24 -8 -13 -24 -11 -21 4 1 6 -6 11 -15 11 -9 -1 -14
4 -12 10 7 17 41 17 48 -1z m756 2 c0 6 9 11 21 12 11 1 19 -3 16 -10 -5 -17
-50 -14 -55 3 -3 13 -2 13 7 0 6 -8 11 -10 11 -5z m273 -8 c4 3 7 1 7 -5 0 -6
-3 -13 -8 -16 -10 -6 -46 16 -50 32 -2 9 4 9 21 -3 13 -8 27 -12 30 -8z m673
4 c-4 -5 -15 -9 -26 -8 -10 1 -16 5 -14 9 3 5 9 6 14 3 5 -3 12 0 15 6 4 5 9
8 12 5 3 -2 2 -9 -1 -15z m91 6 c0 -7 -9 -14 -20 -14 -19 -2 -19 -2 -1 12 11
8 19 15 20 15 0 0 1 -6 1 -13z m883 -2 c0 6 9 11 21 12 11 1 19 -3 16 -10 -5
-17 -50 -14 -55 3 -3 13 -2 13 7 0 6 -8 11 -10 11 -5z m273 -8 c4 3 7 1 7 -5
0 -6 -3 -13 -8 -16 -10 -6 -46 16 -50 32 -2 9 4 9 21 -3 13 -8 27 -12 30 -8z
m447 13 c0 -16 -17 -20 -28 -7 -8 10 -6 13 9 14 10 1 19 -2 19 -7z m30 -4 c0
6 7 11 15 11 14 0 14 -2 1 -15 -15 -15 -36 -9 -36 11 0 7 4 6 10 -3 5 -8 10
-10 10 -4z m170 10 c0 -2 -7 -9 -15 -16 -13 -11 -14 -10 -9 4 5 14 24 23 24
12z m-295 -16 c-3 -5 -12 -10 -18 -10 -7 0 -6 4 3 10 19 12 23 12 15 0z
m-1830 -20 c3 -5 -1 -10 -10 -10 -9 0 -13 5 -10 10 3 6 8 10 10 10 2 0 7 -4
10 -10z"/>
<path d="M5524 5072 c-16 -10 -13 -40 4 -47 10 -4 11 -9 4 -18 -7 -8 -5 -19 8
-35 10 -12 21 -18 24 -13 3 5 -1 11 -9 15 -15 5 -22 37 -7 35 21 -4 22 4 3 30
-11 15 -18 31 -14 35 9 8 1 7 -13 -2z m21 -38 c9 -15 12 -23 6 -20 -11 7 -35
46 -28 46 3 0 12 -12 22 -26z"/>
<path d="M5524 4919 c-2 -4 0 -10 6 -14 6 -4 7 -12 0 -24 -6 -12 -5 -22 2 -29
9 -9 7 -17 -6 -31 -17 -19 -17 -19 1 -17 10 2 22 -2 26 -8 6 -7 7 -5 4 5 -3 9
0 22 6 29 9 10 9 11 -1 6 -9 -6 -11 -1 -8 18 3 14 7 30 10 35 4 5 2 12 -4 16
-6 4 -8 10 -6 14 3 4 -2 8 -10 8 -8 0 -17 -4 -20 -8z m26 -39 c-5 -9 -6 -21
-2 -25 4 -5 1 -5 -6 -1 -8 5 -9 13 -2 25 6 12 5 22 -3 31 -10 12 -9 12 5 1 13
-10 15 -18 8 -31z"/>
<path d="M5500 4515 c-7 -8 -8 -15 -2 -15 5 0 15 7 22 15 7 8 8 15 2 15 -5 0
-15 -7 -22 -15z"/>
<path d="M5529 4486 c-1 -1 -2 -13 -3 -28 -2 -22 0 -26 11 -17 10 9 13 8 13 0
0 -7 5 -9 11 -5 7 4 7 9 1 13 -5 3 -8 13 -7 22 2 12 -17 22 -26 15z m16 -15
c3 -5 2 -12 -3 -15 -5 -3 -9 1 -9 9 0 17 3 19 12 6z"/>
<path d="M5516 3921 c-4 -5 -2 -12 3 -15 5 -4 12 -2 15 3 4 5 2 12 -3 15 -5 4
-12 2 -15 -3z"/>
<path d="M5510 3851 c0 -22 13 -40 24 -34 6 4 5 -1 -3 -11 -12 -15 -12 -17 0
-14 8 2 13 -3 11 -11 -3 -12 0 -12 12 -1 18 14 21 25 5 14 -7 -4 -10 5 -7 26
2 28 -1 34 -19 36 -13 2 -23 0 -23 -5z m34 -13 c-3 -4 -9 -8 -15 -8 -5 0 -9 4
-9 8 0 5 7 9 15 9 8 0 12 -4 9 -9z"/>
<path d="M5516 3711 c-4 -6 -4 -15 -1 -21 3 -5 0 -7 -8 -4 -8 3 -14 -1 -14
-10 0 -17 39 -15 61 4 20 16 21 34 2 27 -7 -3 -18 -1 -24 5 -6 6 -12 6 -16 -1z
m37 -14 c4 3 7 4 7 1 0 -3 -8 -12 -17 -19 -10 -7 -15 -9 -11 -5 4 5 2 16 -5
25 -10 14 -10 14 4 4 9 -7 19 -10 22 -6z"/>
<path d="M5510 3651 c0 -5 7 -12 16 -15 13 -5 14 -9 3 -22 -17 -20 -20 -61 -6
-67 19 -7 27 -7 26 -1 0 4 5 11 13 15 12 8 5 11 -18 8 -14 -2 -22 26 -12 38 9
11 14 11 27 1 14 -11 14 -11 4 2 -6 8 -12 20 -13 25 -1 6 -6 9 -11 8 -5 -2 -9
2 -9 7 0 6 -4 10 -10 10 -5 0 -10 -4 -10 -9z m37 -98 c0 -9 -4 -10 -14 -2 -7
6 -13 12 -13 14 0 1 6 2 13 2 8 0 14 -6 14 -14z"/>
<path d="M5527 3496 c-12 -10 -15 -16 -7 -21 13 -8 23 0 26 20 3 18 4 18 -19
1z"/>
<path d="M5535 3421 c-3 -5 -2 -12 3 -15 5 -3 9 1 9 9 0 17 -3 19 -12 6z"/>
<path d="M5465 3390 c-3 -5 -2 -10 4 -10 5 0 13 5 16 10 3 6 2 10 -4 10 -5 0
-13 -4 -16 -10z"/>
<path d="M5516 3373 c-3 -3 -2 -11 1 -17 4 -6 8 -20 8 -31 0 -11 6 -31 14 -43
7 -13 10 -27 6 -30 -3 -3 -8 4 -12 16 -6 24 -23 30 -23 8 0 -8 7 -17 16 -20
14 -5 14 -9 3 -24 -13 -16 -12 -16 7 1 11 9 24 14 29 10 4 -5 5 -3 1 4 -3 6
-1 15 4 18 8 5 6 13 -6 26 -9 10 -13 19 -9 19 5 0 4 5 -3 12 -14 14 -16 32 -2
23 5 -3 7 0 4 9 -6 16 -29 28 -38 19z m26 -60 c-1 -4 7 -16 15 -25 9 -10 11
-18 6 -18 -6 0 -14 8 -18 18 -10 22 -15 45 -8 39 2 -3 5 -9 5 -14z"/>
<path d="M5510 3140 c0 -5 0 -13 0 -17 0 -5 3 -8 8 -8 4 0 13 -4 20 -9 10 -6
10 -11 -4 -20 -12 -9 -14 -15 -5 -20 6 -4 14 0 17 8 3 9 11 13 18 9 6 -4 5 1
-3 10 -11 14 -11 17 0 17 11 0 11 2 -1 10 -12 8 -12 10 -1 10 22 0 7 10 -23
16 -14 2 -26 0 -26 -6z m37 -17 c0 -8 -4 -10 -12 -3 -7 5 -16 6 -20 2 -5 -4
-5 -2 -2 4 9 15 34 13 34 -3z"/>
<path d="M5526 3011 c-4 -5 -2 -12 4 -16 6 -4 7 -12 3 -18 -13 -20 -12 -36 3
-48 11 -9 10 -14 -9 -29 -21 -18 -21 -19 -2 -16 11 2 24 -2 28 -8 5 -6 5 -1 2
12 -4 15 -2 22 7 22 8 0 9 3 3 8 -6 4 -10 24 -10 45 1 38 -17 68 -29 48z m21
-60 c0 -11 -5 -18 -9 -15 -4 3 -5 11 -1 19 7 21 12 19 10 -4z"/>
<path d="M5510 2841 c0 -4 6 -13 13 -19 6 -7 12 -23 12 -34 0 -15 7 -22 22
-23 17 -1 20 2 13 15 -5 9 -16 22 -25 30 -10 8 -12 17 -6 24 7 8 4 12 -10 13
-10 1 -19 -2 -19 -6z m45 -50 c3 -5 2 -12 -3 -15 -5 -3 -9 1 -9 9 0 17 3 19
12 6z"/>
<path d="M5465 2750 c-3 -5 -2 -10 4 -10 5 0 13 5 16 10 3 6 2 10 -4 10 -5 0
-13 -4 -16 -10z"/>
<path d="M5516 2733 c-3 -3 -2 -11 1 -17 4 -6 8 -20 8 -31 0 -11 6 -31 14 -43
7 -13 10 -27 6 -30 -3 -3 -8 4 -12 16 -6 24 -23 30 -23 8 0 -8 7 -17 16 -20
14 -5 14 -9 3 -24 -13 -16 -12 -16 7 1 11 9 24 14 29 10 4 -5 5 -3 1 4 -3 6
-1 15 4 18 8 5 6 13 -6 26 -9 10 -13 19 -9 19 5 0 4 5 -3 12 -14 14 -16 32 -2
23 5 -3 7 0 4 9 -6 16 -29 28 -38 19z m26 -60 c-1 -4 7 -16 15 -25 9 -10 11
-18 6 -18 -6 0 -14 8 -18 18 -10 22 -15 45 -8 39 2 -3 5 -9 5 -14z"/>
<path d="M5506 2494 c-9 -22 -8 -24 12 -24 18 1 62 29 46 31 -5 0 -19 2 -31 5
-13 2 -23 -3 -27 -12z m39 -3 c-9 -8 -36 -10 -30 -2 2 4 11 8 20 8 8 0 13 -3
10 -6z"/>
<path d="M5516 2431 c-4 -6 -4 -15 -1 -21 3 -5 0 -7 -8 -4 -8 3 -14 -1 -14
-10 0 -17 39 -15 61 4 20 16 21 34 2 27 -7 -3 -18 -1 -24 5 -6 6 -12 6 -16 -1z
m37 -14 c4 3 7 4 7 1 0 -3 -8 -12 -17 -19 -10 -7 -15 -9 -11 -5 4 5 2 16 -5
25 -10 14 -10 14 4 4 9 -7 19 -10 22 -6z"/>
<path d="M5510 2371 c0 -5 7 -12 16 -15 13 -5 14 -9 3 -22 -17 -20 -20 -61 -6
-67 19 -7 27 -7 26 -1 0 4 5 11 13 15 12 8 5 11 -18 8 -14 -2 -22 26 -12 38 9
11 14 11 27 1 14 -11 14 -11 4 2 -6 8 -12 20 -13 25 -1 6 -6 9 -11 8 -5 -2 -9
2 -9 7 0 6 -4 10 -10 10 -5 0 -10 -4 -10 -9z m37 -98 c0 -9 -4 -10 -14 -2 -7
6 -13 12 -13 14 0 1 6 2 13 2 8 0 14 -6 14 -14z"/>
<path d="M5527 2216 c-12 -10 -15 -16 -7 -21 13 -8 23 0 26 20 3 18 4 18 -19
1z"/>
<path d="M5535 2141 c-3 -5 -2 -12 3 -15 5 -3 9 1 9 9 0 17 -3 19 -12 6z"/>
<path d="M5465 2110 c-3 -5 -2 -10 4 -10 5 0 13 5 16 10 3 6 2 10 -4 10 -5 0
-13 -4 -16 -10z"/>
<path d="M5516 2093 c-3 -3 -2 -11 1 -17 4 -6 8 -20 8 -31 0 -11 6 -31 14 -43
7 -13 10 -27 6 -30 -3 -3 -8 4 -12 16 -6 24 -23 30 -23 8 0 -8 7 -17 16 -20
14 -5 14 -9 3 -24 -13 -16 -12 -16 7 1 11 9 24 14 29 10 4 -5 5 -3 1 4 -3 6
-1 15 4 18 8 5 6 13 -6 26 -9 10 -13 19 -9 19 5 0 4 5 -3 12 -14 14 -16 32 -2
23 5 -3 7 0 4 9 -6 16 -29 28 -38 19z m26 -60 c-1 -4 7 -16 15 -25 9 -10 11
-18 6 -18 -6 0 -14 8 -18 18 -10 22 -15 45 -8 39 2 -3 5 -9 5 -14z"/>
<path d="M5510 1860 c0 -5 0 -13 0 -17 0 -5 3 -8 8 -8 4 0 13 -4 20 -9 10 -6
10 -11 -4 -20 -12 -9 -14 -15 -5 -20 6 -4 14 0 17 8 3 9 11 13 18 9 6 -4 5 1
-3 10 -11 14 -11 17 0 17 11 0 11 2 -1 10 -12 8 -12 10 -1 10 22 0 7 10 -23
16 -14 2 -26 0 -26 -6z m37 -17 c0 -8 -4 -10 -12 -3 -7 5 -16 6 -20 2 -5 -4
-5 -2 -2 4 9 15 34 13 34 -3z"/>
<path d="M5526 1731 c-4 -5 -2 -12 4 -16 6 -4 7 -12 3 -18 -13 -20 -12 -36 3
-48 11 -9 10 -14 -9 -29 -21 -18 -21 -19 -2 -16 11 2 24 -2 28 -8 5 -6 5 -1 2
12 -4 15 -2 22 7 22 8 0 9 3 3 8 -6 4 -10 24 -10 45 1 38 -17 68 -29 48z m21
-60 c0 -11 -5 -18 -9 -15 -4 3 -5 11 -1 19 7 21 12 19 10 -4z"/>
<path d="M5510 1561 c0 -4 6 -13 13 -19 6 -7 12 -23 12 -34 0 -15 7 -22 22
-23 17 -1 20 2 13 15 -5 9 -16 22 -25 30 -10 8 -12 17 -6 24 7 8 4 12 -10 13
-10 1 -19 -2 -19 -6z m45 -50 c3 -5 2 -12 -3 -15 -5 -3 -9 1 -9 9 0 17 3 19
12 6z"/>
<path d="M5465 1470 c-3 -5 -2 -10 4 -10 5 0 13 5 16 10 3 6 2 10 -4 10 -5 0
-13 -4 -16 -10z"/>
<path d="M5516 1453 c-3 -3 -2 -11 1 -17 4 -6 8 -20 8 -31 0 -11 6 -31 14 -43
7 -13 10 -27 6 -30 -3 -3 -8 4 -12 16 -6 24 -23 30 -23 8 0 -8 7 -17 16 -20
14 -5 14 -9 3 -24 -13 -16 -12 -16 7 1 11 9 24 14 29 10 4 -5 5 -3 1 4 -3 6
-1 15 4 18 8 5 6 13 -6 26 -9 10 -13 19 -9 19 5 0 4 5 -3 12 -14 14 -16 32 -2
23 5 -3 7 0 4 9 -6 16 -29 28 -38 19z m26 -60 c-1 -4 7 -16 15 -25 9 -10 11
-18 6 -18 -6 0 -14 8 -18 18 -10 22 -15 45 -8 39 2 -3 5 -9 5 -14z"/>
<path d="M5510 1220 c0 -6 0 -13 0 -17 0 -5 3 -8 8 -8 4 0 12 -3 17 -7 6 -4
17 -3 25 3 13 7 13 9 0 9 -13 0 -13 1 0 10 8 5 11 10 5 11 -5 0 -20 2 -32 5
-13 2 -23 -1 -23 -6z m37 -17 c0 -8 -4 -10 -12 -3 -7 5 -16 6 -20 2 -5 -4 -5
-2 -2 4 9 15 34 13 34 -3z"/>
<path d="M5509 1142 c-23 -30 -22 -44 2 -37 17 6 21 4 16 -8 -3 -8 0 -20 6
-26 6 -6 7 -11 3 -11 -5 0 -3 -7 4 -15 7 -8 16 -12 22 -9 5 3 4 12 -3 20 -6 8
-8 14 -4 14 4 0 2 7 -5 15 -9 11 -10 18 -1 28 8 11 7 18 -7 30 -17 15 -19 15
-33 -1z m37 -19 c-10 -11 -19 -7 -22 10 -2 15 0 16 12 6 8 -6 12 -14 10 -16z"/>
<path d="M5437 678 c12 -20 12 -38 0 -38 -6 0 -2 -6 8 -14 17 -12 21 -12 30 1
9 12 6 21 -12 39 -26 26 -39 32 -26 12z m33 -39 c0 -5 -4 -9 -8 -9 -5 0 -9 7
-9 15 0 8 4 12 9 9 4 -3 8 -9 8 -15z"/>
<path d="M5350 580 c0 -5 5 -10 11 -10 5 0 7 5 4 10 -3 6 -8 10 -11 10 -2 0
-4 -4 -4 -10z"/>
<path d="M5310 501 c0 -6 4 -12 8 -15 5 -3 9 1 9 9 0 8 -4 15 -9 15 -4 0 -8
-4 -8 -9z"/>
<path d="M4946 474 c-5 -14 -4 -15 9 -4 17 14 19 20 6 20 -5 0 -12 -7 -15 -16z"/>
<path d="M5475 5540 c-3 -5 -1 -10 4 -10 6 0 11 5 11 10 0 6 -2 10 -4 10 -3 0
-8 -4 -11 -10z"/>
<path d="M5513 5445 c0 -8 4 -12 9 -9 5 3 6 10 3 15 -9 13 -12 11 -12 -6z"/>
<path d="M5539 5433 c-13 -16 -12 -17 4 -4 9 7 17 15 17 17 0 8 -8 3 -21 -13z"/>
<path d="M5530 5400 c0 -5 5 -10 10 -10 6 0 10 5 10 10 0 6 -4 10 -10 10 -5 0
-10 -4 -10 -10z"/>
<path d="M5517 5360 c-3 -11 -1 -20 4 -20 5 0 9 9 9 20 0 11 -2 20 -4 20 -2 0
-6 -9 -9 -20z"/>
<path d="M5554 5359 c-10 -17 9 -30 26 -18 12 9 12 10 -4 5 -13 -5 -17 -2 -12
9 6 17 0 20 -10 4z"/>
<path d="M5532 5318 c3 -7 12 -14 22 -14 13 -2 13 -1 1 3 -8 2 -13 9 -10 14 4
5 1 9 -5 9 -7 0 -10 -6 -8 -12z"/>
<path d="M5570 5290 c-9 -6 -10 -10 -3 -10 6 0 15 5 18 10 8 12 4 12 -15 0z"/>
<path d="M5626 5258 c3 -5 10 -6 15 -3 13 9 11 12 -6 12 -8 0 -12 -4 -9 -9z"/>
<path d="M5495 5249 c3 -3 -2 -12 -10 -19 -8 -7 -15 -17 -15 -22 0 -7 5 -6 13
1 8 6 18 7 22 3 5 -4 6 0 2 9 -3 9 -1 21 4 26 6 6 4 10 -5 10 -8 0 -13 -4 -11
-8z"/>
<path d="M5650 5221 c0 -6 4 -13 10 -16 6 -3 7 1 4 9 -7 18 -14 21 -14 7z"/>
<path d="M5590 5195 c0 -8 4 -15 8 -15 5 0 9 7 9 15 0 8 -4 15 -9 15 -4 0 -8
-7 -8 -15z"/>
<path d="M5646 5182 c-3 -5 1 -9 9 -9 8 0 12 4 9 9 -3 4 -7 8 -9 8 -2 0 -6 -4
-9 -8z"/>
<path d="M5503 5155 c0 -8 4 -12 9 -9 5 3 6 10 3 15 -9 13 -12 11 -12 -6z"/>
<path d="M5610 5162 c0 -5 7 -9 15 -9 8 0 12 4 9 9 -3 4 -9 8 -15 8 -5 0 -9
-4 -9 -8z"/>
<path d="M5650 5140 c0 -5 5 -10 11 -10 5 0 7 5 4 10 -3 6 -8 10 -11 10 -2 0
-4 -4 -4 -10z"/>
<path d="M5590 5130 c0 -5 5 -10 10 -10 6 0 10 5 10 10 0 6 -4 10 -10 10 -5 0
-10 -4 -10 -10z"/>
<path d="M5630 5101 c0 -5 8 -15 18 -22 15 -12 16 -12 5 2 -7 9 -10 19 -6 22
3 4 1 7 -5 7 -7 0 -12 -4 -12 -9z"/>
<path d="M5670 5046 c0 -2 7 -7 16 -10 8 -3 12 -2 9 4 -6 10 -25 14 -25 6z"/>
<path d="M5613 5017 c-3 -6 -1 -7 5 -3 5 3 12 1 14 -6 3 -8 6 -7 10 3 7 17
-19 22 -29 6z"/>
<path d="M5636 4958 c3 -5 10 -6 15 -3 13 9 11 12 -6 12 -8 0 -12 -4 -9 -9z"/>
<path d="M5615 4900 c-3 -6 1 -7 9 -4 18 7 21 14 7 14 -6 0 -13 -4 -16 -10z"/>
<path d="M5652 4900 c2 -8 -2 -14 -9 -15 -23 0 -22 -11 1 -11 23 0 29 17 12
33 -4 4 -6 1 -4 -7z"/>
<path d="M5630 4850 c-8 -5 -12 -12 -9 -15 4 -3 12 1 19 10 14 17 11 19 -10 5z"/>
<path d="M5638 4816 c-22 -16 -23 -23 -4 -23 8 0 14 5 13 11 -1 6 4 10 11 8 8
-1 11 2 7 8 -8 12 -6 12 -27 -4z"/>
<path d="M5510 4760 c0 -16 17 -20 28 -7 8 10 6 13 -9 14 -10 1 -19 -2 -19 -7z"/>
<path d="M5620 4761 c0 -5 7 -12 16 -15 14 -5 15 -4 4 9 -14 17 -20 19 -20 6z"/>
<path d="M5620 4721 c0 -5 7 -11 14 -14 10 -4 13 -1 9 9 -6 15 -23 19 -23 5z"/>
<path d="M5596 4694 c-3 -9 -2 -22 2 -31 6 -10 9 -5 9 16 0 35 -2 38 -11 15z"/>
<path d="M5620 4681 c0 -5 7 -12 16 -15 14 -5 15 -4 4 9 -14 17 -20 19 -20 6z"/>
<path d="M5534 4640 c1 -8 -5 -14 -11 -12 -18 3 -16 -15 2 -22 8 -3 14 -1 12
3 -1 5 3 10 8 11 6 1 18 6 27 11 11 6 19 5 23 -1 5 -8 11 -8 19 -1 8 7 16 7
23 0 6 -6 10 -5 10 5 0 15 -14 16 -35 3 -7 -5 -14 -3 -18 6 -7 20 -61 17 -60
-3z"/>
<path d="M5646 4518 c3 -5 10 -6 15 -3 13 9 11 12 -6 12 -8 0 -12 -4 -9 -9z"/>
<path d="M5613 4376 c-3 -5 -1 -6 5 -2 5 3 12 1 14 -5 2 -7 8 -7 15 3 10 11 8
14 -8 14 -11 0 -23 -5 -26 -10z"/>
<path d="M5517 4363 c-4 -3 -2 -12 4 -20 9 -10 8 -13 -2 -13 -9 -1 -8 -4 4
-11 17 -10 17 -12 2 -29 -15 -17 -15 -20 0 -44 9 -14 16 -27 16 -30 -1 -4 -1
-7 0 -8 8 -26 5 -39 -6 -34 -17 6 -30 -10 -15 -19 6 -4 7 -12 0 -24 -6 -12 -5
-22 2 -29 7 -7 8 -12 2 -12 -15 0 -14 -37 2 -50 7 -7 12 -16 9 -20 -3 -5 6 -3
20 3 14 7 23 18 20 25 -2 6 0 12 5 12 6 0 10 9 10 21 0 14 -5 19 -15 16 -8 -4
-17 -2 -20 3 -4 6 1 10 10 10 10 0 15 6 12 13 -5 12 16 38 30 36 4 0 9 5 11
13 2 8 1 9 -5 3 -7 -10 -17 -11 -40 -6 -5 1 4 9 20 17 15 8 27 20 26 27 0 9
-2 9 -6 0 -2 -7 -9 -13 -14 -13 -6 0 -6 7 0 18 7 13 6 23 -2 31 -8 8 -8 14 -1
19 19 13 14 51 -9 64 -12 6 -23 11 -24 10 -2 -1 -6 -2 -10 -2 -5 0 -2 4 6 9 9
6 10 11 2 15 -6 4 -11 2 -11 -5 0 -8 -3 -9 -13 0 -8 6 -17 8 -20 4z m56 -36
c4 3 7 1 7 -5 0 -6 -5 -14 -10 -17 -6 -4 -7 -11 -4 -17 4 -6 3 -8 -2 -5 -6 3
-10 -12 -10 -34 0 -21 3 -39 7 -39 5 0 6 14 4 31 -2 20 1 32 11 36 11 4 12 8
4 13 -8 5 -6 11 5 20 13 11 15 10 12 -6 -1 -11 -6 -25 -11 -32 -5 -8 -4 -18 2
-24 8 -8 8 -17 1 -30 -5 -10 -6 -18 -2 -18 12 0 -20 -20 -32 -20 -5 0 -4 4 3
9 11 7 10 9 -3 15 -9 3 -14 10 -11 14 3 5 -1 18 -9 28 -12 16 -11 21 2 36 13
14 13 20 3 33 -7 8 -9 15 -5 15 4 0 1 8 -6 18 -7 9 -2 7 12 -6 14 -12 29 -19
32 -15z m0 -172 c-3 -15 -17 -16 -37 -2 -16 12 -15 13 11 12 15 0 27 -4 26
-10z m-17 -37 c-13 -8 -15 -13 -5 -24 6 -7 16 -11 21 -7 6 3 9 0 6 -8 -3 -8
-16 -14 -31 -14 -21 -1 -24 2 -16 16 6 12 5 20 -1 24 -16 10 8 35 27 28 13 -5
13 -7 -1 -15z m3 -79 c-15 -9 -32 -2 -24 11 3 5 13 6 21 3 12 -4 13 -8 3 -14z"/>
<path d="M5535 4271 c-3 -5 -2 -12 3 -15 5 -3 9 1 9 9 0 17 -3 19 -12 6z"/>
<path d="M5634 4315 c3 -23 12 -26 13 -5 1 11 -2 20 -7 20 -4 0 -7 -7 -6 -15z"/>
<path d="M5614 4259 c-4 -7 -3 -9 4 -5 5 3 13 0 15 -6 4 -9 6 -10 6 -1 1 17
-16 25 -25 12z"/>
<path d="M5673 4205 c0 -8 4 -12 9 -9 5 3 6 10 3 15 -9 13 -12 11 -12 -6z"/>
<path d="M5640 4195 c-7 -9 -11 -17 -9 -20 3 -2 10 5 17 15 14 24 10 26 -8 5z"/>
<path d="M5676 4158 c3 -5 10 -6 15 -3 13 9 11 12 -6 12 -8 0 -12 -4 -9 -9z"/>
<path d="M5614 4135 c-4 -8 -10 -12 -15 -9 -5 3 -9 0 -9 -5 0 -16 20 -13 26 4
4 8 11 12 17 8 6 -3 7 -1 3 5 -10 16 -15 15 -22 -3z"/>
<path d="M5614 4099 c-3 -6 -1 -16 5 -22 9 -9 10 -7 5 7 -6 15 -4 17 6 11 9
-5 11 -4 6 3 -9 15 -13 15 -22 1z"/>
<path d="M5596 4054 c-3 -9 -2 -22 2 -31 6 -10 9 -5 9 16 0 35 -2 38 -11 15z"/>
<path d="M5630 4050 c-8 -5 -12 -12 -9 -15 4 -3 12 1 19 10 14 17 11 19 -10 5z"/>
<path d="M5638 4016 c-22 -16 -23 -23 -3 -23 8 0 13 3 10 5 -3 3 0 11 6 19 14
16 9 16 -13 -1z"/>
<path d="M5510 3981 c0 -5 7 -12 16 -15 14 -5 15 -4 4 9 -14 17 -20 19 -20 6z"/>
<path d="M5630 3970 c-8 -5 -12 -12 -9 -15 4 -3 12 1 19 10 14 17 11 19 -10 5z"/>
<path d="M5582 3930 c-7 -11 -10 -20 -6 -20 7 0 34 27 34 34 0 13 -16 5 -28
-14z"/>
<path d="M5636 3935 c-11 -8 -15 -15 -9 -15 7 0 15 5 18 10 4 6 11 7 17 4 7
-4 8 -2 4 4 -9 14 -7 15 -30 -3z"/>
<path d="M5630 3879 c0 -5 5 -7 10 -4 6 3 10 8 10 11 0 2 -4 4 -10 4 -5 0 -10
-5 -10 -11z"/>
<path d="M5616 3835 c4 -8 8 -15 10 -15 2 0 4 7 4 15 0 8 -4 15 -10 15 -5 0
-7 -7 -4 -15z"/>
<path d="M5615 3800 c-3 -5 -1 -10 4 -10 6 0 11 5 11 10 0 6 -2 10 -4 10 -3 0
-8 -4 -11 -10z"/>
<path d="M5630 3760 c0 -5 9 -8 20 -7 21 1 18 10 -5 13 -8 1 -15 -2 -15 -6z"/>
<path d="M5616 3685 c-3 -8 -1 -15 4 -15 6 0 10 7 10 15 0 8 -2 15 -4 15 -2 0
-6 -7 -10 -15z"/>
<path d="M5640 3640 c-9 -6 -10 -10 -3 -10 6 0 15 5 18 10 8 12 4 12 -15 0z"/>
<path d="M5630 3570 c-8 -5 -12 -12 -9 -15 4 -3 12 1 19 10 14 17 11 19 -10 5z"/>
<path d="M5638 3536 c-22 -16 -23 -23 -4 -23 8 0 14 5 13 11 -1 6 4 10 11 8 8
-1 11 2 7 8 -8 12 -6 12 -27 -4z"/>
<path d="M5620 3481 c0 -5 7 -12 16 -15 14 -5 15 -4 4 9 -14 17 -20 19 -20 6z"/>
<path d="M5614 3439 c-3 -6 -1 -16 5 -22 9 -9 10 -7 5 8 l-7 20 23 -20 23 -20
-14 23 c-15 24 -24 27 -35 11z"/>
<path d="M5607 3310 c13 -14 20 -17 30 -8 7 6 13 13 13 15 0 3 -6 0 -14 -6
-10 -9 -15 -8 -20 4 -3 8 -10 15 -16 15 -5 0 -2 -9 7 -20z"/>
<path d="M5641 3276 c-8 -10 -9 -16 -1 -21 6 -4 9 -1 8 7 -2 7 3 12 10 11 6
-2 12 2 12 7 0 14 -16 12 -29 -4z"/>
<path d="M5614 3219 c-4 -7 -3 -9 4 -5 5 3 13 0 15 -6 4 -9 6 -10 6 -1 1 17
-16 25 -25 12z"/>
<path d="M5656 3167 c3 -10 9 -15 12 -12 3 3 0 11 -7 18 -10 9 -11 8 -5 -6z"/>
<path d="M5610 3120 c0 -5 5 -10 10 -10 6 0 10 5 10 10 0 6 -4 10 -10 10 -5 0
-10 -4 -10 -10z"/>
<path d="M5656 3073 c-6 -14 -5 -15 5 -6 7 7 10 15 7 18 -3 3 -9 -2 -12 -12z"/>
<path d="M5630 2850 c-8 -5 -12 -12 -9 -15 4 -3 12 1 19 10 14 17 11 19 -10 5z"/>
<path d="M5630 2810 c-21 -16 -23 -21 -12 -32 11 -11 12 -9 6 7 l-7 20 24 -20
c18 -15 20 -16 10 -2 -11 14 -11 20 -1 32 17 20 10 19 -20 -5z"/>
<path d="M5607 2670 c13 -14 20 -17 30 -8 7 6 13 13 13 15 0 3 -6 0 -14 -6
-10 -9 -15 -8 -20 4 -3 8 -10 15 -16 15 -5 0 -2 -9 7 -20z"/>
<path d="M5641 2636 c-8 -10 -9 -16 -1 -21 6 -4 9 -1 8 7 -2 7 3 12 10 11 6
-2 12 2 12 7 0 14 -16 12 -29 -4z"/>
<path d="M5614 2579 c-4 -7 -3 -9 4 -5 5 3 13 0 15 -6 4 -9 6 -10 6 -1 1 17
-16 25 -25 12z"/>
<path d="M5656 2527 c3 -10 9 -15 12 -12 3 3 0 11 -7 18 -10 9 -11 8 -5 -6z"/>
<path d="M5620 2480 c8 -5 20 -10 25 -10 6 0 3 5 -5 10 -8 5 -19 10 -25 10 -5
0 -3 -5 5 -10z"/>
<path d="M5593 2457 c0 -12 1 -16 4 -9 3 6 9 12 14 12 6 0 8 -4 4 -9 -3 -5 -1
-12 4 -15 5 -4 8 1 7 10 -1 9 -9 20 -17 24 -11 7 -15 3 -16 -13z"/>
<path d="M5616 2405 c-3 -8 -1 -15 4 -15 6 0 10 7 10 15 0 8 -2 15 -4 15 -2 0
-6 -7 -10 -15z"/>
<path d="M5640 2360 c-9 -6 -10 -10 -3 -10 6 0 15 5 18 10 8 12 4 12 -15 0z"/>
<path d="M5630 2290 c-8 -5 -12 -12 -9 -15 4 -3 12 1 19 10 14 17 11 19 -10 5z"/>
<path d="M5638 2256 c-22 -16 -23 -23 -4 -23 8 0 14 5 13 11 -1 6 4 10 11 8 8
-1 11 2 7 8 -8 12 -6 12 -27 -4z"/>
<path d="M5620 2201 c0 -5 7 -12 16 -15 14 -5 15 -4 4 9 -14 17 -20 19 -20 6z"/>
<path d="M5614 2159 c-3 -6 -1 -16 5 -22 9 -9 10 -7 5 8 l-7 20 23 -20 23 -20
-14 23 c-15 24 -24 27 -35 11z"/>
<path d="M5607 2030 c13 -14 20 -17 30 -8 7 6 13 13 13 15 0 3 -6 0 -14 -6
-10 -9 -15 -8 -20 4 -3 8 -10 15 -16 15 -5 0 -2 -9 7 -20z"/>
<path d="M5641 1996 c-8 -10 -9 -16 -1 -21 6 -4 9 -1 8 7 -2 7 3 12 10 11 6
-2 12 2 12 7 0 14 -16 12 -29 -4z"/>
<path d="M5614 1939 c-4 -7 -3 -9 4 -5 5 3 13 0 15 -6 4 -9 6 -10 6 -1 1 17
-16 25 -25 12z"/>
<path d="M5656 1887 c3 -10 9 -15 12 -12 3 3 0 11 -7 18 -10 9 -11 8 -5 -6z"/>
<path d="M5610 1840 c0 -5 5 -10 10 -10 6 0 10 5 10 10 0 6 -4 10 -10 10 -5 0
-10 -4 -10 -10z"/>
<path d="M5656 1793 c-6 -14 -5 -15 5 -6 7 7 10 15 7 18 -3 3 -9 -2 -12 -12z"/>
<path d="M5630 1570 c-8 -5 -12 -12 -9 -15 4 -3 12 1 19 10 14 17 11 19 -10 5z"/>
<path d="M5630 1530 c-21 -16 -23 -21 -12 -32 11 -11 12 -9 6 7 l-7 20 24 -20
c18 -15 20 -16 10 -2 -11 14 -11 20 -1 32 17 20 10 19 -20 -5z"/>
<path d="M5607 1390 c13 -14 20 -17 30 -8 7 6 13 13 13 15 0 3 -6 0 -14 -6
-10 -9 -15 -8 -20 4 -3 8 -10 15 -16 15 -5 0 -2 -9 7 -20z"/>
<path d="M5641 1356 c-8 -10 -9 -16 -1 -21 6 -4 9 -1 8 7 -2 7 3 12 10 11 6
-2 12 2 12 7 0 14 -16 12 -29 -4z"/>
<path d="M5614 1299 c-4 -7 -3 -9 4 -5 5 3 13 0 15 -6 4 -9 6 -10 6 -1 1 17
-16 25 -25 12z"/>
<path d="M5656 1247 c3 -10 9 -15 12 -12 3 3 0 11 -7 18 -10 9 -11 8 -5 -6z"/>
<path d="M5620 1200 c8 -5 20 -10 25 -10 6 0 3 5 -5 10 -8 5 -19 10 -25 10 -5
0 -3 -5 5 -10z"/>
<path d="M5595 1180 c-4 -6 -4 -14 -1 -17 3 -4 6 -1 6 5 0 7 5 12 11 12 5 0 8
-4 4 -9 -3 -5 -1 -12 4 -15 5 -4 8 2 7 11 -3 21 -22 28 -31 13z"/>
<path d="M5650 1159 c0 -5 5 -7 10 -4 6 3 10 8 10 11 0 2 -4 4 -10 4 -5 0 -10
-5 -10 -11z"/>
<path d="M5616 1125 c-3 -8 -1 -15 4 -15 6 0 10 7 10 15 0 8 -2 15 -4 15 -2 0
-6 -7 -10 -15z"/>
<path d="M5640 1080 c-9 -6 -10 -10 -3 -10 6 0 15 5 18 10 8 12 4 12 -15 0z"/>
<path d="M5613 1044 c-3 -8 -2 -19 3 -24 5 -5 9 1 9 16 0 28 -3 30 -12 8z"/>
<path d="M5630 1037 c0 -2 6 -10 14 -16 11 -9 16 -9 22 1 4 7 4 10 -1 6 -4 -4
-14 -3 -22 3 -7 6 -13 9 -13 6z"/>
<path d="M5607 990 c13 -14 20 -17 30 -8 7 6 13 13 13 15 0 3 -6 0 -14 -6 -10
-9 -15 -8 -20 4 -3 8 -10 15 -16 15 -5 0 -2 -9 7 -20z"/>
<path d="M5614 939 c-10 -17 9 -30 26 -18 12 9 12 10 -4 5 -13 -5 -17 -2 -12
9 6 17 0 20 -10 4z"/>
<path d="M5510 920 c0 -5 5 -10 10 -10 6 0 10 5 10 10 0 6 -4 10 -10 10 -5 0
-10 -4 -10 -10z"/>
<path d="M5596 907 c3 -10 9 -15 12 -12 3 3 0 11 -7 18 -10 9 -11 8 -5 -6z"/>
<path d="M5499 883 c-12 -14 -12 -16 2 -11 9 4 16 1 16 -7 0 -7 -6 -11 -12 -9
-7 3 -18 -2 -25 -11 -7 -8 -8 -15 -3 -15 13 0 35 -49 27 -62 -4 -6 1 -6 14 1
11 6 27 9 34 6 7 -3 19 5 27 17 7 13 10 20 6 16 -8 -7 -45 22 -45 35 0 5 7 4
15 -3 8 -7 15 -9 15 -5 0 4 -11 16 -25 27 -14 11 -23 24 -20 29 11 16 -12 10
-26 -8z m35 -34 c-3 -6 4 -21 16 -34 14 -15 18 -25 11 -30 -6 -3 -11 1 -11 11
0 17 -1 16 -13 -1 -10 -13 -16 -15 -21 -6 -4 6 -2 19 5 27 11 13 10 15 -2 12
-7 -1 -15 2 -16 7 -2 6 3 10 10 10 6 1 11 7 9 14 -1 7 2 10 8 6 6 -3 8 -11 4
-16z"/>
<path d="M5525 809 c-4 -6 -5 -12 -2 -15 2 -3 7 2 10 11 7 17 1 20 -8 4z"/>
<path d="M5575 890 c3 -5 8 -10 11 -10 2 0 4 5 4 10 0 6 -5 10 -11 10 -5 0 -7
-4 -4 -10z"/>
<path d="M5580 861 c0 -5 7 -12 16 -15 14 -5 15 -4 4 9 -14 17 -20 19 -20 6z"/>
<path d="M5604 802 c4 -3 14 -7 22 -8 9 -1 13 0 10 4 -4 3 -14 7 -22 8 -9 1
-13 0 -10 -4z"/>
<path d="M5595 783 c3 -3 -3 -11 -12 -18 -13 -9 -13 -14 -3 -20 9 -6 11 -4 5
5 -6 10 -4 12 7 7 16 -6 20 17 5 28 -4 3 -5 2 -2 -2z"/>
<path d="M5576 701 c-4 -5 3 -7 14 -4 23 6 26 13 6 13 -8 0 -17 -4 -20 -9z"/>
<path d="M5550 686 c0 -8 4 -17 9 -20 5 -4 7 3 4 14 -6 23 -13 26 -13 6z"/>
<path d="M5586 682 c-3 -5 1 -9 9 -9 8 0 12 4 9 9 -3 4 -7 8 -9 8 -2 0 -6 -4
-9 -8z"/>
<path d="M355 651 c-3 -5 -2 -12 3 -15 5 -3 9 1 9 9 0 17 -3 19 -12 6z"/>
<path d="M5510 620 c0 -5 5 -10 10 -10 6 0 10 5 10 10 0 6 -4 10 -10 10 -5 0
-10 -4 -10 -10z"/>
<path d="M5535 599 c-4 -6 -4 -13 -1 -16 3 -4 6 -1 6 7 0 10 4 10 18 -1 15
-13 16 -12 3 4 -16 20 -18 20 -26 6z"/>
<path d="M473 558 c1 -7 -4 -12 -11 -10 -8 1 -11 -2 -7 -8 5 -8 11 -8 21 1 7
6 11 15 8 20 -8 13 -14 11 -11 -3z"/>
<path d="M5516 558 c3 -5 10 -6 15 -3 13 9 11 12 -6 12 -8 0 -12 -4 -9 -9z"/>
<path d="M666 529 c3 -5 9 -7 14 -4 4 3 13 -2 20 -10 7 -8 17 -15 23 -15 14 0
-33 34 -50 36 -7 1 -11 -2 -7 -7z"/>
<path d="M2287 533 c-4 -3 -7 -11 -7 -17 0 -6 5 -5 12 2 6 6 9 14 7 17 -3 3
-9 2 -12 -2z"/>
<path d="M2578 519 c-2 -12 -11 -23 -21 -25 -24 -3 -31 -10 -22 -24 5 -8 11
-8 19 -1 7 6 15 8 19 5 3 -3 8 4 12 15 3 12 11 18 17 15 6 -4 5 -9 -3 -15 -7
-4 -10 -11 -6 -16 5 -4 12 -1 16 6 5 7 13 11 19 7 6 -3 13 -2 17 4 3 5 1 10
-6 10 -7 0 -23 9 -35 21 l-22 21 -4 -23z"/>
<path d="M2767 533 c-4 -3 -7 -11 -7 -17 0 -6 5 -5 12 2 6 6 9 14 7 17 -3 3
-9 2 -12 -2z"/>
<path d="M4207 533 c-4 -3 -7 -11 -7 -17 0 -6 5 -5 12 2 6 6 9 14 7 17 -3 3
-9 2 -12 -2z"/>
<path d="M5475 529 c-4 -6 -5 -12 -2 -15 2 -3 7 2 10 11 7 17 1 20 -8 4z"/>
<path d="M475 521 c-3 -5 -2 -12 3 -15 5 -3 9 1 9 9 0 17 -3 19 -12 6z"/>
<path d="M550 508 c-12 -22 -12 -22 6 -6 10 10 15 20 12 24 -4 3 -12 -5 -18
-18z"/>
<path d="M5495 521 c-3 -5 -2 -12 3 -15 5 -3 9 1 9 9 0 17 -3 19 -12 6z"/>
<path d="M1880 495 c-18 -19 -26 -22 -32 -13 -4 7 -8 9 -8 4 0 -4 -11 -1 -24
7 -22 15 -24 14 -34 -8 -7 -15 -18 -22 -29 -20 -10 2 -22 4 -26 4 -5 1 -5 7
-1 14 6 9 5 9 -8 0 -8 -7 -17 -11 -20 -8 -3 3 -11 -1 -18 -10 -13 -16 -35 -21
-25 -6 3 5 1 12 -4 15 -5 4 -13 1 -16 -4 -5 -8 -13 -6 -25 5 -15 14 -18 14
-30 0 -7 -8 -17 -12 -23 -8 -6 3 -7 1 -3 -5 4 -6 -7 -21 -23 -33 -29 -21 -33
-39 -8 -39 9 0 9 2 0 8 -9 5 -6 11 9 21 18 11 20 11 15 -4 -4 -9 -3 -14 3 -10
6 3 10 -1 10 -9 0 -20 17 -29 26 -15 4 8 3 9 -4 5 -7 -4 -12 -3 -12 3 0 5 -3
18 -7 28 -6 17 -6 17 14 0 11 -9 23 -14 26 -10 4 3 7 1 7 -5 0 -7 5 -12 11
-12 8 0 8 5 -1 15 -14 17 -1 20 18 5 9 -7 9 -7 2 2 -15 18 -12 32 3 19 8 -6
17 -8 20 -4 4 3 14 0 22 -7 12 -10 19 -10 27 -2 17 17 33 15 18 -3 -6 -8 -10
-20 -7 -27 4 -8 6 -7 6 4 1 20 40 50 54 41 5 -3 0 -11 -11 -17 -16 -8 -19 -15
-12 -26 8 -13 10 -12 10 3 0 19 15 23 25 7 3 -6 17 -8 30 -6 13 3 26 -1 29 -7
2 -7 5 -4 5 6 1 11 -5 17 -15 15 -10 -2 -19 2 -21 9 -3 8 3 10 19 6 13 -3 33
-5 46 -5 18 0 20 -3 11 -14 -8 -10 -8 -14 0 -14 6 0 11 5 11 11 0 5 5 7 10 4
6 -3 10 -2 10 4 0 5 -5 11 -10 13 -6 2 -1 9 11 17 19 11 21 11 17 -1 -3 -8 0
-27 7 -43 l12 -30 -1 40 c-1 29 -8 46 -26 62 -15 14 -20 22 -11 23 11 0 11 3
1 15 -17 20 -23 19 -50 -10z m31 -3 c-10 -3 -7 -10 9 -22 l23 -18 -31 -16
c-22 -11 -38 -14 -50 -8 -9 5 -26 8 -37 6 -11 -2 -27 -1 -35 3 -23 10 -34 10
-42 -2 -5 -6 -8 -5 -8 4 0 11 -5 10 -20 -4 -16 -15 -22 -16 -35 -5 -11 9 -13
16 -6 23 13 13 43 19 36 7 -11 -18 58 -3 73 16 12 16 14 16 9 2 -7 -21 3 -23
22 -5 11 10 11 8 1 -13 l-13 -25 22 19 c11 11 21 15 21 11 0 -5 5 -4 11 2 6 6
18 9 26 6 7 -3 13 -2 12 3 -4 22 2 35 13 28 9 -6 9 -9 -1 -12z m-315 -21 c-10
-15 25 -22 43 -9 9 7 13 8 9 4 -4 -5 -2 -16 5 -25 10 -14 10 -14 -4 -4 -13 11
-19 9 -34 -7 -16 -18 -20 -19 -35 -5 -9 8 -21 12 -26 8 -5 -5 2 4 15 20 24 26
38 36 27 18z m219 -61 c3 -5 2 -10 -4 -10 -5 0 -13 5 -16 10 -3 6 -2 10 4 10
5 0 13 -4 16 -10z"/>
<path d="M1865 461 c-3 -6 -10 -9 -15 -6 -5 3 -11 1 -14 -4 -4 -5 2 -8 11 -7
10 2 21 -1 24 -6 4 -6 17 -4 34 4 23 12 25 16 11 21 -10 4 -15 3 -11 -3 8 -13
-8 -13 -22 1 -8 8 -13 8 -18 0z"/>
<path d="M1686 452 c-3 -6 -1 -14 5 -17 15 -10 25 3 12 16 -7 7 -13 7 -17 1z"/>
<path d="M1576 452 c-3 -6 1 -15 8 -21 8 -7 17 -8 20 -3 3 6 -1 15 -8 21 -8 7
-17 8 -20 3z"/>
<path d="M3800 495 c-18 -19 -26 -22 -32 -13 -4 7 -8 9 -8 4 0 -4 -11 -1 -24
7 -22 15 -24 14 -34 -8 -7 -15 -18 -22 -29 -20 -10 2 -22 4 -26 4 -5 1 -5 7
-1 14 6 9 5 9 -8 0 -8 -7 -17 -11 -20 -8 -3 3 -11 -1 -18 -10 -13 -16 -35 -21
-25 -6 3 5 1 12 -4 15 -5 4 -13 1 -16 -4 -5 -8 -13 -6 -25 5 -15 14 -18 14
-30 0 -7 -8 -17 -12 -23 -8 -6 3 -7 1 -3 -5 4 -6 -7 -21 -23 -33 -29 -21 -33
-39 -8 -39 9 0 9 2 0 8 -9 5 -6 11 9 21 18 11 20 11 15 -4 -4 -9 -3 -14 3 -10
6 3 10 -1 10 -9 0 -20 17 -29 26 -15 4 8 3 9 -4 5 -7 -4 -12 -3 -12 3 0 5 -3
18 -7 28 -6 17 -6 17 14 0 11 -9 23 -14 26 -10 4 3 7 1 7 -5 0 -7 5 -12 11
-12 8 0 8 5 -1 15 -14 17 -1 20 18 5 9 -7 9 -7 2 2 -15 18 -12 32 3 19 8 -6
17 -8 20 -4 4 3 14 0 22 -7 12 -10 19 -10 27 -2 17 17 33 15 18 -3 -6 -8 -10
-20 -7 -27 4 -8 6 -7 6 4 1 20 40 50 54 41 5 -3 0 -11 -11 -17 -16 -8 -19 -15
-12 -26 8 -13 10 -12 10 3 0 19 15 23 25 7 3 -6 17 -8 30 -6 13 3 26 -1 29 -7
2 -7 5 -4 5 6 1 11 -5 17 -15 15 -10 -2 -19 2 -21 9 -3 8 3 10 19 6 13 -3 33
-5 46 -5 18 0 20 -3 11 -14 -8 -10 -8 -14 0 -14 6 0 11 5 11 11 0 5 5 7 10 4
6 -3 10 -2 10 4 0 5 -5 11 -10 13 -6 2 -1 9 11 17 19 11 21 11 17 -1 -3 -8 0
-27 7 -43 l12 -30 -1 40 c-1 29 -8 46 -26 62 -15 14 -20 22 -11 23 11 0 11 3
1 15 -17 20 -23 19 -50 -10z m31 -3 c-10 -3 -7 -10 9 -22 l23 -18 -31 -16
c-22 -11 -38 -14 -50 -8 -9 5 -26 8 -37 6 -11 -2 -27 -1 -35 3 -23 10 -34 10
-42 -2 -5 -6 -8 -5 -8 4 0 11 -5 10 -20 -4 -16 -15 -22 -16 -35 -5 -11 9 -13
16 -6 23 13 13 43 19 36 7 -11 -18 58 -3 73 16 12 16 14 16 9 2 -7 -21 3 -23
22 -5 11 10 11 8 1 -13 l-13 -25 22 19 c11 11 21 15 21 11 0 -5 5 -4 11 2 6 6
18 9 26 6 7 -3 13 -2 12 3 -4 22 2 35 13 28 9 -6 9 -9 -1 -12z m-315 -21 c-10
-15 25 -22 43 -9 9 7 13 8 9 4 -4 -5 -2 -16 5 -25 10 -14 10 -14 -4 -4 -13 11
-19 9 -34 -7 -16 -18 -20 -19 -35 -5 -9 8 -21 12 -26 8 -5 -5 2 4 15 20 24 26
38 36 27 18z m219 -61 c3 -5 2 -10 -4 -10 -5 0 -13 5 -16 10 -3 6 -2 10 4 10
5 0 13 -4 16 -10z"/>
<path d="M3785 461 c-3 -6 -10 -9 -15 -6 -5 3 -11 1 -14 -4 -4 -5 2 -8 11 -7
10 2 21 -1 24 -6 4 -6 17 -4 34 4 23 12 25 16 11 21 -10 4 -15 3 -11 -3 8 -13
-8 -13 -22 1 -8 8 -13 8 -18 0z"/>
<path d="M3606 452 c-3 -6 -1 -14 5 -17 15 -10 25 3 12 16 -7 7 -13 7 -17 1z"/>
<path d="M3496 452 c-3 -6 1 -15 8 -21 8 -7 17 -8 20 -3 3 6 -1 15 -8 21 -8 7
-17 8 -20 3z"/>
<path d="M4546 498 c10 -12 13 -18 7 -14 -20 11 -36 -3 -23 -19 12 -14 27 -14
48 -2 6 5 16 5 22 2 6 -3 7 1 4 9 -7 19 -20 21 -28 4 -3 -7 -3 -2 0 11 4 15 2
21 -4 17 -6 -3 -13 -2 -17 4 -3 5 -11 10 -17 10 -6 0 -3 -10 8 -22z"/>
<path d="M822 490 c-10 -16 -8 -22 9 -34 l21 -14 -21 -21 c-12 -12 -21 -22
-21 -24 0 -12 40 0 69 19 33 22 51 23 51 3 0 -6 -5 -7 -10 -4 -6 3 -22 -3 -36
-14 -15 -12 -23 -21 -19 -21 5 0 17 7 27 17 10 9 21 13 25 9 4 -4 1 -11 -7
-16 -8 -6 -10 -10 -4 -10 7 0 19 11 28 25 19 29 31 32 40 9 4 -12 2 -15 -9
-11 -15 6 -29 -6 -18 -16 12 -12 42 13 36 30 -10 24 16 6 28 -21 9 -21 10 -21
5 2 -5 26 1 28 25 6 17 -15 45 -11 34 6 -3 4 6 7 20 6 14 0 25 -7 25 -15 0 -8
2 -12 5 -10 4 4 7 16 14 59 1 3 5 -1 10 -9 6 -9 11 -10 15 -2 4 6 2 11 -4 11
-6 0 -9 4 -6 8 2 4 1 14 -5 22 -6 11 -9 11 -9 2 0 -10 -5 -10 -21 -2 -16 9
-24 8 -38 -4 -22 -20 -31 -20 -31 -1 0 16 -12 20 -24 8 -12 -12 -36 -12 -36 0
0 7 -5 4 -11 -5 -5 -10 -15 -18 -22 -18 -8 0 -8 3 2 9 9 6 10 11 2 15 -6 4
-11 3 -11 -1 0 -5 -9 -9 -20 -10 -11 -1 -20 4 -20 10 0 7 -4 6 -9 -3 -6 -8 -8
-17 -5 -21 5 -9 -23 -6 -32 3 -3 4 -13 4 -22 1 -14 -4 -14 -3 -3 5 7 5 10 16
7 23 -5 9 -3 9 6 -1 19 -21 40 -24 36 -4 -4 24 -52 27 -66 4z m311 -24 c17 2
17 1 3 -15 -9 -10 -13 -20 -10 -24 3 -3 -5 -4 -18 -2 -37 4 -52 9 -61 20 -5 6
-7 4 -4 -5 2 -8 9 -14 14 -13 5 1 10 -5 10 -13 0 -21 -13 -17 -37 14 -12 15
-19 22 -16 15 8 -14 -10 -27 -18 -14 -4 5 -20 8 -36 6 -17 -2 -30 1 -30 7 0 5
-6 8 -13 5 -8 -3 -14 0 -14 7 0 13 25 15 45 2 6 -4 18 -4 25 1 16 10 67 11 73
1 7 -10 44 -11 43 0 -3 18 2 24 14 15 6 -6 20 -9 30 -7z m-270 -29 c-4 -7 0
-6 10 2 9 7 17 9 17 3 0 -9 -43 -42 -55 -42 -3 0 1 10 10 23 8 13 12 27 8 32
-5 4 -2 5 5 1 7 -4 9 -13 5 -19z"/>
<path d="M1093 449 c-2 -24 10 -25 28 -1 7 9 9 14 5 10 -5 -4 -14 -4 -20 2 -8
6 -12 3 -13 -11z"/>
<path d="M973 446 c-3 -6 -3 -8 2 -4 4 4 13 3 20 -2 8 -7 12 -5 12 3 0 16 -25
18 -34 3z"/>
<path d="M5149 493 c-7 -7 -6 -13 1 -18 5 -3 10 -3 10 1 0 3 7 1 16 -7 14 -12
14 -14 -3 -27 -16 -12 -16 -13 9 -8 18 3 28 -1 32 -11 4 -9 9 -13 13 -10 3 4
0 14 -8 23 -11 14 -10 15 7 12 10 -1 23 -7 27 -13 6 -6 10 -6 14 3 2 6 11 12
19 12 8 0 14 5 14 11 0 5 -5 7 -12 3 -13 -9 -58 -14 -58 -7 0 2 5 13 10 23 9
16 7 18 -10 15 -11 -2 -20 0 -20 5 0 12 -50 7 -61 -7z m74 -11 c3 7 6 8 6 2 1
-6 -9 -19 -21 -30 -13 -10 -20 -15 -16 -10 4 5 3 15 -3 22 -6 7 -7 19 -3 25 5
9 10 7 20 -5 9 -13 13 -14 17 -4z"/>
<path d="M5190 481 c0 -6 4 -13 10 -16 6 -3 7 1 4 9 -7 18 -14 21 -14 7z"/>
<path d="M2036 491 c-3 -5 1 -14 8 -20 12 -10 13 -8 9 8 -6 23 -9 25 -17 12z"/>
<path d="M3956 491 c-3 -5 1 -14 8 -20 12 -10 13 -8 9 8 -6 23 -9 25 -17 12z"/>
<path d="M4460 490 c-16 -10 -8 -23 15 -26 9 -1 15 6 15 17 0 21 -8 23 -30 9z"/>
<path d="M4830 481 c-7 -15 -8 -21 -1 -17 6 4 17 4 24 -1 18 -11 38 -13 31 -2
-3 5 -10 7 -15 4 -5 -4 -13 4 -18 16 l-8 23 -13 -23z"/>
<path d="M5376 487 c2 -7 14 -19 27 -26 19 -13 21 -12 10 1 -7 8 -9 19 -5 23
4 5 1 5 -5 1 -7 -4 -13 -2 -13 3 0 6 -4 11 -10 11 -5 0 -7 -6 -4 -13z"/>
<path d="M600 480 c0 -5 5 -10 10 -10 6 0 10 5 10 10 0 6 -4 10 -10 10 -5 0
-10 -4 -10 -10z"/>
<path d="M1227 477 c-3 -7 3 -13 13 -13 10 0 16 6 13 13 -3 7 -9 13 -13 13 -4
0 -10 -6 -13 -13z"/>
<path d="M1342 478 c5 -15 36 -19 45 -6 3 7 1 8 -5 4 -7 -4 -12 -2 -12 3 0 6
-7 11 -16 11 -9 0 -14 -5 -12 -12z"/>
<path d="M2306 482 c-3 -5 1 -9 9 -9 8 0 12 4 9 9 -3 4 -7 8 -9 8 -2 0 -6 -4
-9 -8z"/>
<path d="M2390 481 c0 -5 9 -11 19 -14 14 -3 18 -1 14 9 -6 15 -33 19 -33 5z"/>
<path d="M2786 482 c-3 -5 1 -9 9 -9 8 0 12 4 9 9 -3 4 -7 8 -9 8 -2 0 -6 -4
-9 -8z"/>
<path d="M2870 479 c0 -14 35 -28 49 -20 9 6 9 10 -1 18 -15 12 -48 13 -48 2z"/>
<path d="M2947 477 c-3 -8 1 -14 9 -14 8 0 14 6 14 14 0 7 -4 13 -9 13 -5 0
-11 -6 -14 -13z"/>
<path d="M3016 475 c-7 -20 9 -28 23 -11 9 10 8 15 -3 19 -8 3 -17 -1 -20 -8z"/>
<path d="M3087 484 c-3 -4 -1 -16 5 -27 9 -17 6 -23 -13 -39 -16 -12 -18 -16
-6 -12 13 5 16 2 11 -12 -5 -15 -4 -16 4 -4 6 8 9 17 6 21 -2 4 0 10 6 14 5 3
10 1 10 -5 0 -7 9 -9 23 -5 21 6 21 6 3 -9 -11 -9 -15 -16 -9 -16 7 0 15 5 18
10 3 6 11 10 18 10 8 0 8 -3 -1 -12 -7 -7 -12 -17 -12 -22 0 -6 7 0 16 13 l17
24 19 -24 c16 -19 18 -20 11 -4 -11 25 -10 66 1 83 7 11 4 12 -12 3 -17 -9
-23 -8 -31 6 -9 17 -11 17 -23 0 -13 -17 -15 -17 -27 -3 -14 17 -24 20 -34 10z
m60 -23 c15 15 47 -8 51 -36 2 -17 0 -16 -13 5 l-16 25 7 -25 c7 -24 6 -24
-20 -7 -18 12 -26 14 -26 5 0 -20 -20 5 -25 31 -4 22 -3 22 13 7 13 -11 21
-13 29 -5z"/>
<path d="M3145 451 c-3 -5 0 -13 6 -17 7 -4 9 -3 5 4 -3 5 0 13 6 15 9 4 10 6
1 6 -6 1 -14 -3 -18 -8z"/>
<path d="M3262 478 c5 -15 36 -19 45 -6 3 7 1 8 -5 4 -7 -4 -12 -2 -12 3 0 6
-7 11 -16 11 -9 0 -14 -5 -12 -12z"/>
<path d="M4226 482 c-3 -5 1 -9 9 -9 8 0 12 4 9 9 -3 4 -7 8 -9 8 -2 0 -6 -4
-9 -8z"/>
<path d="M4310 481 c0 -5 9 -11 19 -14 14 -3 18 -1 14 9 -6 15 -33 19 -33 5z"/>
<path d="M4627 470 c-10 -12 -9 -13 3 -4 8 5 25 9 38 8 12 0 22 2 22 6 0 14
-51 5 -63 -10z"/>
<path d="M5064 478 c-4 -7 -4 -10 1 -6 4 4 14 3 22 -4 11 -8 12 -7 7 6 -7 19
-20 21 -30 4z"/>
<path d="M5435 479 c-3 -4 2 -6 10 -5 21 3 28 13 10 13 -9 0 -18 -4 -20 -8z"/>
<path d="M1193 465 c0 -8 4 -12 9 -9 5 3 6 10 3 15 -9 13 -12 11 -12 -6z"/>
<path d="M2115 470 c-4 -6 -11 -7 -17 -4 -7 4 -8 2 -4 -4 10 -17 33 -15 33 3
0 18 -3 19 -12 5z"/>
<path d="M4035 470 c-4 -6 -11 -7 -17 -4 -7 4 -8 2 -4 -4 10 -17 33 -15 33 3
0 18 -3 19 -12 5z"/>
<path d="M634 440 c0 -16 3 -30 6 -30 4 0 7 14 7 30 0 17 -3 30 -7 30 -3 0 -6
-13 -6 -30z"/>
<path d="M5356 453 c-6 -14 -5 -15 5 -6 7 7 10 15 7 18 -3 3 -9 -2 -12 -12z"/>
<path d="M5299 439 c-12 -9 -12 -10 1 -6 8 2 23 0 33 -5 9 -5 17 -6 17 -4 0
13 -37 24 -51 15z"/>
<path d="M5376 442 c-3 -5 1 -9 9 -9 8 0 12 4 9 9 -3 4 -7 8 -9 8 -2 0 -6 -4
-9 -8z"/>
<path d="M595 420 c3 -5 8 -10 11 -10 2 0 4 5 4 10 0 6 -5 10 -11 10 -5 0 -7
-4 -4 -10z"/>
<path d="M697 423 c-3 -5 5 -8 18 -8 13 0 21 3 18 8 -2 4 -10 7 -18 7 -8 0
-16 -3 -18 -7z"/>
<path d="M5232 392 c-11 -25 -11 -25 4 -10 9 9 15 21 13 27 -2 6 -10 -2 -17
-17z"/>
<path d="M5266 404 c-5 -14 -4 -15 9 -4 17 14 19 20 6 20 -5 0 -12 -7 -15 -16z"/>
<path d="M5310 417 c0 -2 6 -10 14 -16 11 -9 16 -9 22 1 4 7 4 10 -1 6 -4 -4
-14 -3 -22 3 -7 6 -13 9 -13 6z"/>
<path d="M713 398 c1 -7 -4 -12 -11 -10 -8 1 -11 -2 -7 -8 5 -8 11 -8 21 1 7
6 11 15 8 20 -8 13 -14 11 -11 -3z"/>
<path d="M780 399 c0 -5 5 -7 10 -4 6 3 10 8 10 11 0 2 -4 4 -10 4 -5 0 -10
-5 -10 -11z"/>
<path d="M1661 393 c0 -11 3 -13 6 -5 2 6 10 9 15 6 7 -4 8 -2 4 4 -11 18 -26
14 -25 -5z"/>
<path d="M2350 400 c0 -6 7 -13 15 -16 12 -5 13 -10 4 -20 -6 -8 -9 -14 -6
-14 2 0 9 6 15 13 9 10 6 17 -8 30 -11 9 -20 12 -20 7z"/>
<path d="M3581 393 c0 -11 3 -13 6 -5 2 6 10 9 15 6 7 -4 8 -2 4 4 -11 18 -26
14 -25 -5z"/>
<path d="M4270 400 c0 -6 7 -13 15 -16 12 -5 13 -10 4 -20 -6 -8 -9 -14 -6
-14 2 0 9 6 15 13 9 10 6 17 -8 30 -11 9 -20 12 -20 7z"/>
<path d="M4487 392 c3 -7 9 -10 12 -5 3 4 10 11 15 15 4 4 -1 6 -12 5 -12 -1
-18 -6 -15 -15z"/>
<path d="M4836 394 c-9 -24 -2 -26 12 -4 7 11 8 20 3 20 -5 0 -12 -7 -15 -16z"/>
<path d="M1430 391 c0 -7 -5 -9 -12 -5 -7 5 -8 3 -3 -5 5 -9 10 -10 18 -2 6 6
8 14 4 18 -4 3 -7 1 -7 -6z"/>
<path d="M3350 391 c0 -7 -5 -9 -12 -5 -7 5 -8 3 -3 -5 5 -9 10 -10 18 -2 6 6
8 14 4 18 -4 3 -7 1 -7 -6z"/>
<path d="M994 361 c0 -16 4 -27 8 -25 4 2 5 14 3 26 -7 32 -13 32 -11 -1z"/>
<path d="M1030 380 c0 -5 5 -10 11 -10 5 0 7 5 4 10 -3 6 -8 10 -11 10 -2 0
-4 -4 -4 -10z"/>
<path d="M1070 380 c-13 -8 -12 -10 3 -10 9 0 17 5 17 10 0 12 -1 12 -20 0z"/>
<path d="M1139 388 c0 -2 -2 -13 -3 -25 -2 -19 0 -21 12 -11 9 8 10 14 3 16
-6 2 -9 8 -5 13 3 5 3 9 0 9 -3 0 -6 -1 -7 -2z"/>
<path d="M1255 379 c-4 -6 -5 -12 -2 -15 2 -3 7 2 10 11 7 17 1 20 -8 4z"/>
<path d="M1353 368 c-2 -18 0 -20 7 -8 12 18 13 30 2 30 -4 0 -9 -10 -9 -22z"/>
<path d="M1497 374 c5 -13 3 -15 -8 -9 -11 7 -12 6 -2 -7 7 -8 11 -18 8 -21
-3 -4 -2 -5 2 -2 11 9 13 44 3 50 -6 4 -7 -1 -3 -11z"/>
<path d="M1539 388 c-3 -6 -6 -48 -4 -48 1 0 9 8 16 17 12 14 12 16 0 8 -11
-6 -13 -4 -8 8 5 13 1 25 -4 15z"/>
<path d="M1630 380 c-13 -8 -12 -10 3 -10 9 0 17 5 17 10 0 12 -1 12 -20 0z"/>
<path d="M1699 388 c0 -2 -2 -13 -3 -25 -2 -19 0 -21 12 -11 9 8 10 14 3 16
-6 2 -9 8 -5 13 3 5 3 9 0 9 -3 0 -6 -1 -7 -2z"/>
<path d="M1870 380 c0 -6 7 -10 15 -10 8 0 15 2 15 4 0 2 -7 6 -15 10 -8 3
-15 1 -15 -4z"/>
<path d="M1936 377 c3 -10 9 -15 12 -12 3 3 0 11 -7 18 -10 9 -11 8 -5 -6z"/>
<path d="M2057 374 c5 -13 3 -15 -8 -9 -11 7 -12 6 -2 -7 7 -8 11 -18 8 -21
-3 -4 -2 -5 2 -2 11 9 13 44 3 50 -6 4 -7 -1 -3 -11z"/>
<path d="M2230 382 c0 -5 10 -17 23 -28 l22 -19 -20 24 c-18 22 -18 24 -2 18
11 -4 16 -3 12 3 -8 12 -35 13 -35 2z"/>
<path d="M2455 381 c-6 -11 13 -26 22 -17 4 3 1 6 -6 6 -7 0 -9 5 -6 10 3 6 4
10 1 10 -3 0 -7 -4 -11 -9z"/>
<path d="M2550 380 c0 -5 5 -10 10 -10 6 0 10 5 10 10 0 6 -4 10 -10 10 -5 0
-10 -4 -10 -10z"/>
<path d="M2654 382 c3 -5 0 -13 -6 -15 -9 -4 -10 -6 -1 -6 17 -1 25 16 12 25
-7 4 -9 3 -5 -4z"/>
<path d="M2855 381 c-3 -5 0 -13 6 -17 8 -5 9 -3 4 6 -6 10 -4 12 8 7 10 -3
17 -2 17 3 0 13 -27 13 -35 1z"/>
<path d="M3059 388 c-3 -6 -6 -48 -4 -48 1 0 9 8 16 17 12 14 12 16 0 8 -11
-6 -13 -4 -8 8 5 13 1 25 -4 15z"/>
<path d="M3175 379 c-4 -6 -5 -12 -2 -15 2 -3 7 2 10 11 7 17 1 20 -8 4z"/>
<path d="M3273 368 c-2 -18 0 -20 7 -8 12 18 13 30 2 30 -4 0 -9 -10 -9 -22z"/>
<path d="M3417 374 c5 -13 3 -15 -8 -9 -11 7 -12 6 -2 -7 7 -8 11 -18 8 -21
-3 -4 -2 -5 2 -2 11 9 13 44 3 50 -6 4 -7 -1 -3 -11z"/>
<path d="M3459 388 c-3 -6 -6 -48 -4 -48 1 0 9 8 16 17 12 14 12 16 0 8 -11
-6 -13 -4 -8 8 5 13 1 25 -4 15z"/>
<path d="M3550 380 c-13 -8 -12 -10 3 -10 9 0 17 5 17 10 0 12 -1 12 -20 0z"/>
<path d="M3619 388 c0 -2 -2 -13 -3 -25 -2 -19 0 -21 12 -11 9 8 10 14 3 16
-6 2 -9 8 -5 13 3 5 3 9 0 9 -3 0 -6 -1 -7 -2z"/>
<path d="M3790 380 c0 -6 7 -10 15 -10 8 0 15 2 15 4 0 2 -7 6 -15 10 -8 3
-15 1 -15 -4z"/>
<path d="M3856 377 c3 -10 9 -15 12 -12 3 3 0 11 -7 18 -10 9 -11 8 -5 -6z"/>
<path d="M3977 374 c5 -13 3 -15 -8 -9 -11 7 -12 6 -2 -7 7 -8 11 -18 8 -21
-3 -4 -2 -5 2 -2 11 9 13 44 3 50 -6 4 -7 -1 -3 -11z"/>
<path d="M4150 382 c0 -5 10 -17 23 -28 l22 -19 -20 24 c-18 22 -18 24 -2 18
11 -4 16 -3 12 3 -8 12 -35 13 -35 2z"/>
<path d="M4375 381 c-6 -11 13 -26 22 -17 4 3 1 6 -6 6 -7 0 -9 5 -6 10 3 6 4
10 1 10 -3 0 -7 -4 -11 -9z"/>
<path d="M4470 385 c0 -5 5 -17 10 -25 5 -8 10 -10 10 -5 0 6 -5 17 -10 25 -5
8 -10 11 -10 5z"/>
<path d="M4510 380 c0 -5 5 -10 11 -10 5 0 7 5 4 10 -3 6 -8 10 -11 10 -2 0
-4 -4 -4 -10z"/>
<path d="M4550 380 c-13 -8 -12 -10 3 -10 9 0 17 5 17 10 0 12 -1 12 -20 0z"/>
<path d="M4979 388 c-3 -6 -6 -48 -4 -48 1 0 9 8 16 17 12 14 12 16 0 8 -11
-6 -13 -4 -8 8 5 13 1 25 -4 15z"/>
<path d="M5096 381 c-3 -5 1 -14 9 -21 8 -7 12 -17 8 -23 -4 -6 -1 -7 6 -3 9
6 9 12 -3 25 -9 10 -13 21 -9 24 3 4 4 7 0 7 -3 0 -8 -4 -11 -9z"/>
<path d="M1595 369 c-4 -6 -5 -12 -2 -15 2 -3 7 2 10 11 7 17 1 20 -8 4z"/>
<path d="M1836 367 c3 -10 9 -15 12 -12 3 3 0 11 -7 18 -10 9 -11 8 -5 -6z"/>
<path d="M3515 369 c-4 -6 -5 -12 -2 -15 2 -3 7 2 10 11 7 17 1 20 -8 4z"/>
<path d="M3756 367 c3 -10 9 -15 12 -12 3 3 0 11 -7 18 -10 9 -11 8 -5 -6z"/>
<path d="M4666 364 c-5 -14 -4 -15 9 -4 17 14 19 20 6 20 -5 0 -12 -7 -15 -16z"/>
<path d="M4703 360 c-9 -14 -10 -21 -1 -26 7 -4 8 -3 4 5 -4 6 0 14 8 17 9 3
16 10 16 15 0 15 -15 10 -27 -11z"/>
<path d="M4750 376 c0 -2 7 -9 15 -16 13 -11 14 -10 9 4 -5 14 -24 23 -24 12z"/>
<path d="M5035 369 c-4 -6 -5 -12 -2 -15 2 -3 7 2 10 11 7 17 1 20 -8 4z"/>
<path d="M854 354 c1 -8 4 -15 7 -16 2 -2 3 -1 2 1 -2 2 2 9 7 16 7 8 5 12 -4
12 -8 0 -13 -6 -12 -13z"/>
<path d="M941 356 c-9 -11 -9 -16 1 -22 7 -4 10 -4 6 1 -4 4 -3 14 3 22 6 7 9
13 6 13 -2 0 -10 -6 -16 -14z"/>
<path d="M1190 360 c0 -5 9 -8 20 -7 21 1 18 10 -5 13 -8 1 -15 -2 -15 -6z"/>
<path d="M1436 353 c-6 -14 -5 -15 5 -6 7 7 10 15 7 18 -3 3 -9 -2 -12 -12z"/>
<path d="M1750 361 c0 -6 4 -13 10 -16 6 -3 7 1 4 9 -7 18 -14 21 -14 7z"/>
<path d="M1794 362 c4 -3 14 -7 22 -8 9 -1 13 0 10 4 -4 3 -14 7 -22 8 -9 1
-13 0 -10 -4z"/>
<path d="M1995 360 c-3 -5 -1 -10 4 -10 6 0 11 5 11 10 0 6 -2 10 -4 10 -3 0
-8 -4 -11 -10z"/>
<path d="M2193 351 c0 -11 5 -18 9 -15 4 3 5 11 1 19 -7 21 -12 19 -10 -4z"/>
<path d="M2402 358 c-15 -15 -16 -28 -2 -28 6 0 9 6 8 13 -2 6 3 11 10 9 8 -1
11 2 7 8 -8 13 -8 13 -23 -2z"/>
<path d="M2575 359 c-3 -4 2 -6 10 -5 21 3 28 13 10 13 -9 0 -18 -4 -20 -8z"/>
<path d="M2695 360 c-4 -6 -1 -9 7 -8 8 2 13 -6 12 -20 -2 -24 8 -22 12 3 3
19 -22 40 -31 25z"/>
<path d="M3015 361 c-3 -5 -2 -12 3 -15 5 -3 9 1 9 9 0 17 -3 19 -12 6z"/>
<path d="M3110 360 c0 -5 5 -10 11 -10 5 0 7 5 4 10 -3 6 -8 10 -11 10 -2 0
-4 -4 -4 -10z"/>
<path d="M3356 353 c-6 -14 -5 -15 5 -6 7 7 10 15 7 18 -3 3 -9 -2 -12 -12z"/>
<path d="M3670 361 c0 -6 4 -13 10 -16 6 -3 7 1 4 9 -7 18 -14 21 -14 7z"/>
<path d="M3714 362 c4 -3 14 -7 22 -8 9 -1 13 0 10 4 -4 3 -14 7 -22 8 -9 1
-13 0 -10 -4z"/>
<path d="M3915 360 c-3 -5 -1 -10 4 -10 6 0 11 5 11 10 0 6 -2 10 -4 10 -3 0
-8 -4 -11 -10z"/>
<path d="M4113 351 c0 -11 5 -18 9 -15 4 3 5 11 1 19 -7 21 -12 19 -10 -4z"/>
<path d="M4322 358 c-15 -15 -16 -28 -2 -28 6 0 9 6 8 13 -2 6 3 11 10 9 8 -1
11 2 7 8 -8 13 -8 13 -23 -2z"/>
<path d="M4596 353 c-6 -14 -5 -15 5 -6 7 7 10 15 7 18 -3 3 -9 -2 -12 -12z"/>
<path d="M5073 355 c0 -8 4 -12 9 -9 5 3 6 10 3 15 -9 13 -12 11 -12 -6z"/>
<path d="M4833 345 c0 -8 4 -12 9 -9 5 3 6 10 3 15 -9 13 -12 11 -12 -6z"/>
<path d="M5175 351 c-3 -5 -2 -12 3 -15 5 -3 9 1 9 9 0 17 -3 19 -12 6z"/>
<path d="M1400 340 c-9 -6 -10 -10 -3 -10 6 0 15 5 18 10 8 12 4 12 -15 0z"/>
<path d="M1787 339 c7 -7 15 -10 18 -7 3 3 -2 9 -12 12 -14 6 -15 5 -6 -5z"/>
<path d="M2507 339 c7 -7 15 -10 18 -7 3 3 -2 9 -12 12 -14 6 -15 5 -6 -5z"/>
<path d="M3320 340 c-9 -6 -10 -10 -3 -10 6 0 15 5 18 10 8 12 4 12 -15 0z"/>
<path d="M3707 339 c7 -7 15 -10 18 -7 3 3 -2 9 -12 12 -14 6 -15 5 -6 -5z"/>
<path d="M4427 339 c7 -7 15 -10 18 -7 3 3 -2 9 -12 12 -14 6 -15 5 -6 -5z"/>
<path d="M1833 325 c0 -8 4 -12 9 -9 5 3 6 10 3 15 -9 13 -12 11 -12 -6z"/>
<path d="M1993 325 c0 -8 4 -12 9 -9 5 3 6 10 3 15 -9 13 -12 11 -12 -6z"/>
<path d="M3753 325 c0 -8 4 -12 9 -9 5 3 6 10 3 15 -9 13 -12 11 -12 -6z"/>
<path d="M3913 325 c0 -8 4 -12 9 -9 5 3 6 10 3 15 -9 13 -12 11 -12 -6z"/>
<path d="M1570 319 c0 -5 5 -7 10 -4 6 3 10 8 10 11 0 2 -4 4 -10 4 -5 0 -10
-5 -10 -11z"/>
<path d="M1610 326 c0 -2 7 -7 16 -10 8 -3 12 -2 9 4 -6 10 -25 14 -25 6z"/>
<path d="M2795 321 c-3 -5 -2 -12 3 -15 5 -3 9 1 9 9 0 17 -3 19 -12 6z"/>
<path d="M2836 318 c3 -5 10 -6 15 -3 13 9 11 12 -6 12 -8 0 -12 -4 -9 -9z"/>
<path d="M3490 319 c0 -5 5 -7 10 -4 6 3 10 8 10 11 0 2 -4 4 -10 4 -5 0 -10
-5 -10 -11z"/>
<path d="M3530 326 c0 -2 7 -7 16 -10 8 -3 12 -2 9 4 -6 10 -25 14 -25 6z"/>
<path d="M1110 276 c7 -7 13 -7 20 0 6 6 3 10 -10 10 -13 0 -16 -4 -10 -10z"/>
</g>
</svg>
